<?xml version="1.0" encoding="UTF-8"?>
<svg width="508mm" height="175.88mm" version="1.1" viewBox="0 0 508 175.88" xmlns="http://www.w3.org/2000/svg" xmlns:cc="http://creativecommons.org/ns#" xmlns:dc="http://purl.org/dc/elements/1.1/" xmlns:rdf="http://www.w3.org/1999/02/22-rdf-syntax-ns#" xmlns:xlink="http://www.w3.org/1999/xlink">
 <defs>
  <linearGradient id="linearGradient1139" x1="25.475" x2="25.475" y1="70.445" y2="270.09" gradientTransform="matrix(1 0 0 .42724 227.56 54.92)" gradientUnits="userSpaceOnUse">
   <stop style="stop-color:#162e51" offset="0"/>
   <stop style="stop-color:#336dc0" offset="1"/>
  </linearGradient>
  <linearGradient id="linearGradient3752" x1="52.675" x2="74.45" y1="131.92" y2="154.74" gradientUnits="userSpaceOnUse">
   <stop style="stop-color:#bebebe" offset="0"/>
   <stop style="stop-color:#aeaeae;stop-opacity:.0026896" offset="1"/>
  </linearGradient>
  <clipPath id="clipPath3799">
   <rect x="2.4414e-6" y="53.066" width="508" height="172.42" style="fill:#fff;stop-color:#000000;stroke-width:.87445"/>
  </clipPath>
 </defs>
 <metadata>
  <rdf:RDF>
   <cc:Work rdf:about="">
    <dc:format>image/svg+xml</dc:format>
    <dc:type rdf:resource="http://purl.org/dc/dcmitype/StillImage"/>
    <dc:title/>
   </cc:Work>
  </rdf:RDF>
 </metadata>
 <path d="m208.43 21.669c-24.894 2.3593-75.744-4.8785-98.174-12.54-40.579-10.924-74.239-0.66506-110.25 16.45v66.135h508c-9e-3 -26.038 0.0307-52.123-0.0486-78.09-34.493 7.7573-70.605 17.169-105.73 12.217-25.829-3.6408-57.973-25.841-92.984-25.841s-48.624 17.669-100.8 21.669z" style="fill:#162e51;stop-color:#000000;stroke-linecap:round;stroke-linejoin:round;stroke-width:1.6956"/>
 <rect y="79.537" width="508" height="96.339" style="fill:url(#linearGradient1139);stop-color:#000000;stroke-width:.65364"/>
 <g transform="matrix(.20825 -.60325 .60325 .20825 -55.263 90.746)">
  <circle cx="57.43" cy="139.68" r="24.063" style="fill:url(#linearGradient3752);stop-color:#000000;stroke-width:2.5021"/>
  <ellipse transform="rotate(-19.182)" cx="-1.2659" cy="138.13" rx="3.4131" ry="3.0999" style="fill:#9a9a9a;stop-color:#000000;stroke-width:2.5021"/>
  <ellipse transform="rotate(-19.182)" cx="-3.7004" cy="148.68" rx="5.9397" ry="5.3945" style="fill:#9a9a9a;stop-color:#000000;stroke-width:2.5021"/>
  <ellipse cx="51.275" cy="124.59" rx="2.2091" ry="1.5194" style="fill:#9a9a9a;stop-color:#000000;stroke-width:2.5021"/>
  <ellipse cx="50.549" cy="133.47" rx=".86002" ry="1.3688" style="fill:#9a9a9a;stop-color:#000000;stroke-width:2.5021"/>
  <ellipse cx="69.065" cy="126.69" rx="3.6994" ry="2.9803" style="fill:#9a9a9a;stop-color:#000000;stroke-width:2.5021"/>
 </g>
 <path d="m32.88 28.787s-1.4712 1.4145-1.0682 2.0826c0.51714 0.85803 2.5951 0.94878 3.0042 0.03537 0.39067-0.87292-1.936-2.1173-1.936-2.1173z" style="fill:#fff"/>
 <path d="m92.259 64.405s-1.4712 1.4145-1.0682 2.0826c0.51714 0.85803 2.5951 0.94878 3.0042 0.0354 0.39067-0.87293-1.936-2.1173-1.936-2.1173z" style="fill:#fff"/>
 <path d="m40.912 133.25s-1.4712 1.4145-1.0682 2.0826c0.51714 0.85804 2.5951 0.94879 3.0042 0.0354 0.39067-0.87293-1.936-2.1173-1.936-2.1173z" style="fill:#fff"/>
 <path d="m139.82 136.4s-1.4712 1.4145-1.0682 2.0826c0.51714 0.85803 2.5951 0.94878 3.0042 0.0354 0.39067-0.87293-1.936-2.1173-1.936-2.1173z" style="fill:#fff"/>
 <path d="m150.84 32.815s-1.4712 1.4145-1.0682 2.0826c0.51714 0.85803 2.5951 0.94878 3.0042 0.0354 0.39067-0.87293-1.936-2.1173-1.936-2.1173z" style="fill:#fff"/>
 <path d="m186.98 76.628s-1.4712 1.4145-1.0682 2.0826c0.51714 0.85803 2.5951 0.94878 3.0042 0.0354 0.39067-0.87293-1.936-2.1173-1.936-2.1173z" style="fill:#fff"/>
 <path d="m213.94 108.16s-1.4711 1.4145-1.0682 2.0826c0.51715 0.85803 2.5951 0.94878 3.0042 0.0354 0.39066-0.87293-1.936-2.1173-1.936-2.1173z" style="fill:#fff"/>
 <path d="m232.58 35.138s-1.4712 1.4145-1.0682 2.0826c0.51713 0.85803 2.5951 0.94878 3.0042 0.0354 0.39066-0.87293-1.936-2.1173-1.936-2.1173z" style="fill:#fff"/>
 <path d="m253.2 51.158s-1.4712 1.4145-1.0682 2.0826c0.51713 0.85803 2.5951 0.94878 3.0042 0.0354 0.39066-0.87293-1.936-2.1173-1.936-2.1173z" style="fill:#fff"/>
 <path d="m324.82 25.223s-1.4712 1.4145-1.0682 2.0826c0.51713 0.85803 2.5951 0.94878 3.0042 0.0354 0.39066-0.87293-1.936-2.1173-1.936-2.1173z" style="fill:#fff"/>
 <path d="m478.88 64.368s-1.4712 1.4145-1.0682 2.0826c0.51713 0.85803 2.5951 0.94878 3.0042 0.0354 0.39068-0.87293-1.936-2.1173-1.936-2.1173z" style="fill:#fff"/>
 <path d="m413.06 56.878s-1.4712 1.4145-1.0682 2.0826c0.51714 0.85803 2.5951 0.94878 3.0042 0.0354 0.39066-0.87293-1.936-2.1173-1.936-2.1173z" style="fill:#fff"/>
 <path d="m377.62 128.1s-1.4712 1.4145-1.0682 2.0826c0.51713 0.85803 2.5951 0.94878 3.0042 0.0354 0.39068-0.87293-1.936-2.1173-1.936-2.1173z" style="fill:#fff"/>
 <path d="m291.86 112.31s-1.4711 1.4145-1.0682 2.0826c0.51713 0.85803 2.5951 0.94878 3.0042 0.0354 0.39066-0.87293-1.936-2.1173-1.936-2.1173z" style="fill:#fff"/>
 <path d="m313.99 57.408s-1.4711 1.4145-1.0682 2.0826c0.51715 0.85803 2.5951 0.94878 3.0042 0.0354 0.39066-0.87293-1.936-2.1173-1.936-2.1173z" style="fill:#fff"/>
 <path d="m488.48 126.69s-1.4712 1.4145-1.0682 2.0826c0.51713 0.85803 2.5951 0.94878 3.0042 0.0354 0.39067-0.87293-1.936-2.1173-1.936-2.1173z" style="fill:#fff"/>
 <path d="m301 145.6s-1.4711 1.4145-1.0682 2.0826c0.51715 0.85803 2.5951 0.94878 3.0042 0.0354 0.39068-0.87293-1.936-2.1173-1.936-2.1173z" style="fill:#fff"/>
 <path d="m306.44 125.16s-1.4711 1.4145-1.0682 2.0826c0.51715 0.85803 2.5951 0.94878 3.0042 0.0354 0.39066-0.87293-1.936-2.1173-1.936-2.1173z" style="fill:#fff"/>
 <g transform="translate(-2.4414e-6 -49.615)" clip-path="url(#clipPath3799)">
  <path d="m427.98 261.26c-0.79137 1.9022-0.26624 4.2114-1.0783 6.035-1.4662 0.44325-1.8777 0.21389-3.2546 0.91784-1.6166-0.0908-5.5891 0.63877-2.2009 1.177 1.1307 0.3395 3.6044-0.69278 2.9348 0.23794 1.8429-0.10567 3.751-0.67879 5.6588-0.23412 1.3925 0.43941 2.6822-7e-3 4.0321 4e-3 1.4726 0.70574 2.6902-0.1568 3.96-0.78425 1.3812-0.33393 2.6867 0.25049 3.8167 0.0726 0.57597-0.33038-1.0738-1.1641-2.436-0.82391-1.2267-0.0282-2.275-0.89312-3.7822-0.76547-1.3668-0.0543-2.7419-0.28999-4.2222-0.3854-1.5038-1.3144-0.7702-3.6398 0.0943-5.1261-1.1741-0.10834-2.3482-0.21668-3.5224-0.32502z" style="fill:#483e37;stroke-width:0"/>
  <path d="m423.99 173.98c-0.10792-0.0502 0.0367 2.695-1.4399 2.2123-0.24175-0.52947 0.0427-1.4728-0.90936-1.5916 0.0417 1.1-0.3118 5.9648-1.5286 7.8921 1.3278 1.2565-0.49509 4.1367 0.88178 5.4202 1.0094-1.8931 1.3062-6.0349 1.2695-7.0015-0.0301-4e-3 -0.0582-9e-3 -0.0911-0.0108 0.0492-0.28839 0.0815-0.2441 0.0911 0.0108 0.87163 0.109 0.61162 0.97279 0.83301 1.4576 1.8808 0.61391 0.88827-4.4922 1.6434-0.46552 1.2645 1.0597 1.3948 1.5085 1.1483 2.3867 0.0787-0.22645 0.22659-0.40802 0.45961-0.51626 4.2326 1.2581-2.7237-3.9677 0.94286-2.3286 2.042 0.27654-0.36023-1.1586-2.1823-1.631 0.66732-2.1956 1.1925-2.4912-0.76354-4.1306-0.23191-1.2367-0.31245-1.6843-0.35468-1.7039zm1.898 10.31c-0.10272 0.36594-0.26951 0.80465-0.44926 1.3961 0.20714 0.0537 0.42223 0.12084 0.63695 0.19704-0.2357-0.56506-0.33799-1.1609-0.18769-1.5931zm-4.2473-9.6897c-0.0106-0.27853-0.0453-0.32679-0.099-0.0118 0.0358 2e-3 0.0662 8e-3 0.099 0.0118zm10.127 7.2798c-0.45005 0.0454-1.2626 0.54819-1.8374 1.2833-1.2823-1.9305-2.3991 1.2388-1.2729 2.866-0.27283 1.9909-1.2403 1.7547-1.9709 0.87488-1.3837-0.28846 3.3594 3.4398-0.11232 2.4079-1.7072 0.793 1.5929 5.8738 2.1148 2.0655-1.0314-1.4902-9e-3 -4.3926 1.1655-2.6246 0.35322-0.45165 0.80302-0.80364 1.1862-1.0015-1.3546-1.3329-2.3304-2.641 0.39212-2.5852-0.54331-1.7237 3.3212-1.4885-3e-3 -1.8261 0.8752-1.0938 0.78797-1.5055 0.33793-1.4601zm-0.12612 6.4468c-0.0977 0.16634-0.22976 0.35882-0.41329 0.58818 0.75579 0.0768 1.1041 0.12137 1.2108 0.16897-0.24461-0.23844-0.51818-0.49442-0.79754-0.75715zm0.83499 0.79311c-5e-3 0.14263-1.5896 0.37633-1.2453 1.468-3.6312-0.0743-0.0888 2.4953 1.2591 3.932 0.0342-0.0879 0.0761-0.17847 0.13152-0.2734 5.2566 1.9782-3.1178-3.9896 0.38031-3.7641 0.66876-0.064 0.22565-0.62638-0.52562-1.3626zm-11.142 0.51527c-0.88306 1.4404-4.0678 2.8062-5.6537 2.9783 3.9193 2.6931-3.2217 1.0553-2.869 4.2104-1.1232 5.2467 0.96648-2.5786 1.1542 0.57192 3.2996 0.30865-0.2177 2.1904-0.55468 4.4079-2.6558 0.9509-2.8074 5.0156 0.15172 2.6985 3.5005-0.95386 0.0294 0.0869-0.44976 1.8724 0.0763 0.0558 0.2316 0.19278 0.3739 0.31626 0.30499-0.36231 0.71941-0.68014 1.2399-0.86651 0.30861-2.0308 3.5297-3.7543 0.50788-4.037-0.17191-2.8853-2.0858 4.2813-1.0572-0.52365-0.32307-2.8894 6.2164-1.3893 2.6271-3.8557 1.9964-0.21673 6.7638-2.4989 5.0133-4.1847-1.05-0.75741-0.51736-2.3053-0.48375-3.5882zm-8.2212 16.739c-0.102-0.0746-0.1271-0.0701-0.0192 0.0704 6e-3 -0.0237 0.013-0.047 0.0192-0.0704zm19.286-10.922c-2.4672 0.13106 4.5849 5.2053-0.0788 3.4503-1.2389 2.1193 3.4945 2.2505 5.1818 4.2921 0.63585-0.38472 1.3292-1.1844 1.3739-1.9025 2.9739-0.34355 1.5906-0.74674-0.40395-1.0645 0.13101 7e-3 0.26643 5e-3 0.40641-0.0113-0.4608-2.8923-5.4258-3.2449-6.334-4.7621-0.0488-7.7e-4 -0.10239-4e-3 -0.14532-2e-3zm3.0532 3.3044c0.57438-8e-3 1.3661 1.1056 2.569 1.4025-1.2334-0.18163-2.5852-0.33036-3.2646-0.41133 0.1968-0.72722 0.42129-0.98727 0.69557-0.99114zm-26.993 4.1675c-0.45384 8e-3 -0.97152 0.12039-1.5719 0.367-0.44976 0.21748-0.7716 0.36081-1.0064 0.45813 0.43959-0.0775 1.0305-0.0331 1.166 0.64138-0.7156 0.74406 2.9433 0.24701 1.3912 2.7557 0.12158 0.0111 0.22439 0.0234 0.32413 0.0359 3.5097-1.4343 3.9253 2.1452 5.7828 3.7444 4e-3 3.1204 3.723-0.15923 1.3246 0.19262 0.66138 0.79056-1.0694-0.86537-1.4168-1.1035-5e-3 0.0194-0.0119 0.0384-0.0163 0.0581-0.0905-0.11774-0.0577-0.10882 0.0163-0.0581 0.39917-1.5127 3.0818-2.4243 0.97882-1.871-0.25762 0.38848-0.92909 0.80532-1.4665 0.69459-1.0892 0.42063-1.3454-0.57512-0.86108-1.5636-1.6295-1.5061-2.2473-4.392-4.6448-4.3517zm-2.5783 0.82513c-0.49864 0.0879-0.79279 0.3286 0 0zm29.032-0.71527c-0.25119 4e-3 -0.4572 0.2414-0.63744 0.90739 0.62176 0.0741 1.8582 0.21018 2.9872 0.37636-1.1002-0.27277-1.8241-1.2912-2.3498-1.2837zm3.1059 1.3384c-0.1167 0.0115-0.23007 0.0145-0.3399 9e-3 0.16489 0.0263 0.32369 0.0528 0.47685 0.0803-0.0461-0.0298-0.0912-0.059-0.13695-0.0887zm1.2182 0.7862c-0.253 0.0674-0.6359 0.13313-1.1892 0.19705-0.018 0.28961-0.1526 0.59404-0.34582 0.87439 1.3398-0.28666 4.2351 1.479 3.0537 0.0985 1.4626 0.73443 0.10796-0.12954-1.5187-1.17zm-3.8227 1.6557c-0.42629 0.0995 7.0134 4.4887 4.3547 3.1537 1.3775 1.6096-3.2978-1.4522-3.3783 0.64236 0.15055 1.433 5.3664 1.8576 7.5409 3.3897 1.1604 1.1186-2.4915-0.67431-0.24728 1.6921 0.7006 1.7322-2.1295-1.0655-3.1724-0.0532-1.1073-0.0195 7.17 2.6872 4.2685 4.3985-2.936-0.27945 3.8443 2.5498 2.7818 2.3906 1.5813 1.5529 6.0532 3.4854 1.6926 3.2054-4.2844-1.3904-0.69133 1.2438 1.737 1.0158 1.9065 0.7314 3.747 2.5018 1.3434 1.9606 0.97889 1.6218 2.526 2.8071 3.8512 4.0429 0.17746-1.2819 2.3804-0.71731 3.9394-0.033-1.574-1.9922-4.1907-3.5203-5.6488-5.936 2.6247 0.591 0.61478-1.3423-1.467-2.1409-2.6515 0.24895-6.5749-2.6271-1.8966-1.1089 4.7614 0.30573-0.12158-1.8044-1.8483-3.5 1.1602 0.17377-6.2433-2.9155-3.0374-2.6104 3.1683-1.8687-5.8697-4.8248-4.6606-4.8035 1.1388-1.1054 4.2286 1.9495 3.4636 0.0581-2.4505-2.584 1.5375-0.6263 0.27045-1.8478-2.3744-1.6729-8.0701-2.1358-8.2345-3.7005 2e-3 -0.0497 0.01-0.0935 0.0157-0.13794-0.57749 0.4638-1.209 0.62869-1.2631 0.0399-0.23234-0.0926-0.36083-0.12803-0.40492-0.11774zm-26.337 1.7586c-0.24708 0.43666-0.51141 1.0096-0.62021 1.7729 3.0161 3.3742-4.6069 6.6034-4.035 11.191 1.5862-0.61899 2.4925-3.4003 4.733-3.769-0.87107 2.27-5.5032 4.1544-3.5596 7.3404 0.65358-0.8857 0.88626-1.2102 0.94089-1.2325-0.0142 6e-3 -0.0276 0.0146-0.0419 0.0202-0.52374-4.2015 6.4573-7.1587 3.6951-10.249 0.32684-2.2929 2.1891-2.7298-0.0177-2.9301 1.0387-1.6788-0.46206-1.8875-1.0946-2.1443zm1.7517 11.872c-2.0259 0.33339-2.8618 2.8166-4.2808 3.4251 0.0724 0.0405-0.73835 1.6314 0.40739 1.8069-0.22156-0.37544-0.0193-0.6216 0.32562-0.70838 0.60898-1.7101 2.9728-3.0252 3.5478-4.5237zm-13.559 0.61823c-1.4653-0.0936-2.4431 4.0208-0.89558 2.7961 1.4772-1.9262-0.4022 1.0638 0.96996 1.7094 0.51377-0.11499 0.85167-0.0937 1.0754 0.0152 0.10121-1.0908 1.1685-3.0485 2.3044-1.6217 3.7076 1.4667 5.9861 5.2442 9.6094 5.0256 1.2058-2.2884-2.1736-2.409-1.5192-1.3-0.39157-0.06-0.53217-0.30159-0.5596-0.58178-0.20781-9.5e-4 -0.411-0.0163-0.61134-0.0404-0.0308 0.0418-0.0418 0.0566-0.0749 0.10149-0.0244-0.04-0.0434-0.0791-0.0655-0.11872-3.3416-0.48988-5.7258-3.9931-9.3818-5.4394-0.29185-0.3666-0.57988-0.52847-0.85123-0.54581zm2.3872 4.3774c-0.0485-0.0179-0.19479 0.14175-0.53301 0.58276-0.12255 0.097-0.22561 0.15323-0.31478 0.18276 0.12575 0.90843-0.46305 2.3511 0.84138 2.2759-0.38799 2.5906 0.56126 2.0175 1.6956 0.55272 0.0546-0.85471 0.18022-1.7847-1.334-1.4458-0.94247-0.44337-0.20967-2.0946-0.35517-2.1483zm1.6793 4.1266c-0.74404 1.9477-3.6828 5.5469-3.0138 8.4828 1.5256-1.2968 1.6684-0.0515 2.5685 0.87439-0.60759-3.0604 2.9399-6.8684 2.931-8.3449-1.1017 1.4803-2.0695 2.1602-1.6975-0.32315-0.58993 0.034-0.75648-0.27134-0.78818-0.68917zm53.636 3.8064c-0.81125-2e-3 -1.3225 0.37715-0.967 1.5025 0.0689 0.0151 0.11983 0.0225 0.19507 0.0404 3.7459 1.8481-0.93121-2.3018 2.3931-0.66847-0.11284-0.23292-0.19867-0.44289-0.26453-0.63597-0.47912-0.14213-0.95444-0.23753-1.3566-0.23842zm-1.8572 1.9025c-0.1257 0.42673 1.4647 2.106-1.0335 0.87341-3.6046-0.85615 0.86207 1.87 2.802 1.0498 2.18 0.27971 7e-3 0.13837 0.36404 1.1872 0.94449-0.13042 1.831-0.60496 2.8517-0.35566-1.7381-1.8812 1.9296-1.6127-0.83942-1.968-1.1973 0.50625-3.2744-0.22418-4.1448-0.78671zm-51.301 3.237c-0.22405 0.0278-0.50103 0.17223-0.86306 0.47292 0.0726 0.0706 0.14881 0.13929 0.23203 0.20394 0.24832-0.25627 0.51029-0.48023 0.76601-0.67636-0.0434-4e-3 -0.0873-7e-3 -0.13498-5e-4zm0.40838 0.0946c-0.13658 0.0794-0.2761 0.16012-0.43941 0.25074-1.3035 3.7141-5.8856 0.88-7.4675 3.7389-4.3662 2.1478 4.7269 0.31923 1.8222 3.3872-1.0528 3.1424-6.9748 1.3008-8.204 3.1123-2.6421 1.6895 2.1332 0.0552 1.5976 2.5104 1.7525-2.8871 1.4422 2.2597 2.664-0.56749 0.84499 1.4412 1.5188 2.2902 3.3237 2.6803 3.7415-2.9602-0.58225 3.8363 2.5512 1.4266 0.0222 2.069 2.5092 0.53676 2.7527 1.4906-2.9813 2.1867 2.2952 3.2374 3.0808 1.569-1.2734-0.14915-2.3314-0.97197-0.70543-2.1645-0.223-0.87359-2.5008 0.52975-2.5212-1.365-2.8697 2.2068 1.09-4.0178-2.3365-1.3069-1.6529-0.3573-2.2695-1.1348-3.0434-2.4547-1.119 2.5892-0.83494-2.1243-2.4399 0.51971 0.49052-2.2485-3.8827-0.75176-1.4631-2.299 1.1257-1.659 6.5492 0.0275 7.5133-2.8503 2.6602-2.8097-5.6675-1.135-1.669-3.102 1.4487-2.6182 5.6447-0.0228 6.8384-3.4241 2.9994-1.6644 0.93729-1.2306-0.54926 0.30344-0.62799-0.48783-0.89313-1.1985-1.3054-1.4552zm52.676 0.33941c-1.0591 0.0794-2.0118 0.72096-3.1646 0.22069 1.5679 0.98723 4.4728 3.244 1.371 2.6601-1.6723 4.4597 7.262 2.6896 8.3759 6.8207 0.0494 0.0777 0.0882 0.14638 0.12758 0.21527 0.90983 0.29054 4.5076 2.3017 2.8547-0.29951-1.2162-4.5109-10.971-2.5776-9.1454-7.4473 2.7434 0.51639 1.1827-1.001-0.41921-2.17zm3.8424 9.938c-0.19193-0.0278-0.0301 0.17861 0.80147 0.87094 1.8496 0.27675 3.288 2.7279 2.7187 2.6133 1.2716 4.397 7.3211 3.858 9.2626 7.6591 0.20461-0.14044 0.41612-0.3236 0.63449-0.56207 1.0008 1.4596 1.93 0.72905 3.2877 1.5542-2.1028-4.1846-8.7386-3.58-10.131-8.3931 0.62163 0.12515-0.94883-2.551-2.9685-2.8532-0.21586-0.17969-0.38483-0.32536-0.52267-0.44877 0.43705 1.3602-2.5726-0.3664-3.0832-0.4404zm-52.81 7.2621c-0.0396 3e-3 -0.0771 4e-3 -0.11822 8e-3 0.0179 0.0305 0.0301 0.0584 0.0463 0.0882zm62.597 2.4852c-0.47641 0.52026-0.92013 0.76487-1.3162 0.83104 0.67561 0.265 1.2489 0.31789 1.5768-0.37291 0.32738 0.79169 1.3559 1.8689 2.7187 0.94779-1.226-0.72493-2.0707-0.0807-2.9793-1.4059z" style="fill-opacity:.60998;fill:#f2f2f2;stroke-width:0"/>
  <path d="m422.58 177.94c1.9736 0.6451 0.93207-4.7131 1.7242-0.4886 1.8792 1.5749 1.3746 1.8589 0.7335 3.9682 1.7505 0.45391 4.0581 1.8328 2.0963 1.5671-3.5225-1.5747 3.1605 3.4457-0.90575 2.2371-1.7909 0.83188 1.6712 6.1618 2.2186 2.1669-1.082-1.5632-9e-3 -4.608 1.2228-2.7534 1.1045-1.4124 3.1226-1.9315 1.4409 0.17009 3.1932 0.32436-0.51921 0.0986 3e-3 1.7545-5.1732-0.10591 3.548 4.9119 1.5076 5.1071-3.3607-0.21669 4.6848 5.5167-0.3653 3.6162-1.5131 2.5884 5.4703 2.3465 6.0103 5.7361-2.2739 0.2575-3.2875-2.9343-3.9597-0.4502 1.827 0.21774 8.7331 0.93206 3.9575 1.4837-0.0784 1.2594-2.2336 2.7896-2.338 1.6535-2.5998-1.0363 7.2212 4.7301 4.1436 3.1848 1.445 1.6885-3.4598-1.5234-3.5442 0.67387 0.15793 1.5032 5.6297 1.9484 7.9108 3.5556 1.2172 1.1735-2.6137-0.7073-0.2595 1.7752 0.73495 1.8171-2.2336-1.1178-3.3277-0.0559-1.1616-0.0205 7.5214 2.8192 4.4776 4.6145-3.0799-0.29315 4.0328 2.6747 2.9182 2.5078 1.6589 1.629 6.3497 3.6564 1.7753 3.3627-4.4945-1.4586-0.72498 1.3046 1.8224 1.0654 2 0.76726 3.9307 2.6245 1.4091 2.0568 1.4008 2.3208 3.915 3.7888 5.4272 5.7027-1.9267-0.84567-4.8789-1.5028-3.3931 1.5641-3.1937-1.5692 1.2995 2.4176-2.2992 0.64212-3.7813-0.89813 0.90446 1.9619 2.9395 1.1015 2.6603 0.34134-0.86304 0.0831 0.80675 1.8903-1.6452-0.4018-2.9261 1.1619-4.719-0.18123 1.2276 0.63606 5.7742 3.8482 2.0458 3.1464-1.7543 4.6784 7.6177 2.8211 8.7862 7.1548 2.2309 3.5108-5.523-1.7431-2.0334 1.162 1.9403 0.29032 3.4494 2.8615 2.8522 2.7413 1.3373 4.624 7.7124 4.0433 9.7327 8.0636-1.3044-0.79273-2.1972-0.091-3.1587-1.4933-1.6154 1.7642-2.8743 0.5166-3.2372-0.36102-0.93905 1.9782-3.9501-2.35-5.5278 0.29213-1.7888-0.31883-5.4578 1.8568-4.0742 0.83868-3.2506-2.5023 1.3364 2.9428-2.4458 0.49547-3.6638-2.2004 2.2973 6.5557 0.38706 4.1853 2.3254 1.2625 6.4618 0.3837 7.3381 2.9943-2.1159-0.56616-6.3303 0.24375-8.9581-2.5011-2.2258-2.1168-4.9636-4.562-7.7929-4.9296 0.23752 2.8882 3.9522 2.9081 5.2329 5.3567-2.9605-1.5122-3.996 2.6767-6.4266 0.72798 1.8225-1.0791-0.38792-3.8506-0.24875-0.38924-0.72913 0.4647-3.7876-0.93469-3.0587-0.72358 1.4967-1.4402-1.0188-3.571-0.73653-0.25319-1.6207 0.96725-2.7396-2.4402-4.2643-0.4079-1.6984-1.9467-0.74003 4.3833-3.0826 0.94607-1.7588-0.99016-3.0664-2.3907-3.8426 0.52156-2.0263-3.7774-3.9135 0.38181-5.3889 1.6638-2.3412-2.6875-3.0938 2.0699-5.6106 0.98766-2.0945-1.3525-5.562-1.0264-7.0234-0.0983-1.4226-1.8656-0.20259-3.1501-1.9144-0.58894-1.3193 1.3264-2.7597 1.9046-1.8846-0.86059-0.95484 1.8098-4.0121-0.7092-1.5445-1.9503 0.29856-1.2432-0.38952 0.32894-0.95535-0.37039-4.2216 1.6412-1.0184-3.0773 0.57896-4.1265 0.72331-1.7575 1.9867-4.3482-1.3088-4.0476 1.9813 3.3743-6.2152 2.4279-2.7424-0.11922-0.23394-0.91641-2.6235 0.55571-2.6448-1.432-3.0104 2.315 1.1436-4.2147-2.4508-1.3709-1.734-0.37482-2.3811-1.1902-3.1929-2.5748-1.1738 2.7161-0.87568-2.2288-2.5593 0.54493 0.51457-2.3587-4.0733-0.78845-1.535-2.4116 1.1809-1.7403 6.8704 0.0289 7.8818-2.99 2.7906-2.9474-5.9454-1.1905-1.7508-3.254 1.5198-2.7466 5.9218-0.0242 7.1741-3.5923 3.1464-1.746 0.98299-1.2905-0.57645 0.31878-1.1336-0.88065-1.1359-2.4652-2.7476-1.0952-0.73532-3.2268 3.0659-7.2885 3.0565-8.8532-1.1558 1.5528-2.1706 2.2661-1.7804-0.33899-1.9837 0.11447 0.59214-3.4271-2.216-2.7986-1.3182-0.62015 0.48752-3.4928-0.93166-1.6423-1.762 1.3945-0.11626-4.4161 1.6782-2.1621 3.8894 1.5386 6.28 5.5013 10.081 5.272 1.2649-2.4006-2.2806-2.5271-1.5941-1.3638-1.611-0.24681 0.80723-3.4106-1.3065-0.54617-1.8672-3.0608 2.583-4.871 3.4198-7.0518-2.1525 0.35422-3.0232 3.0263-4.5471 3.621-0.54942-4.4075 6.7738-7.5099 3.8762-10.751 0.34286-2.4053 2.2966-2.8636-0.0184-3.0737 1.4912-2.4101-2.0237-1.933-1.3362-2.6478-0.3217-1.6006-3.3306 0.48006-0.15347-1.0563 3.6917-1.5163 4.1266 2.2446 6.077 3.9238 4e-3 3.2734 3.9054-0.1671 1.3895 0.202 0.84152 1.0059-2.0438-1.8-1.5034-1.0964 0.38801-1.7567 3.8578-2.795 0.45058-1.8666-2.8428 2.226-2.6972-1.6786-0.14578-2.5921 0.32374-2.1304 3.703-3.9385 0.53303-4.235-0.18034-3.0267-2.1883 4.4913-1.1092-0.54925-0.33891-3.0311 6.5216-1.4575 2.7563-4.0449 2.0942-0.22736 7.0952-2.6211 5.2588-4.3896-1.6069-1.1592 0.32071-4.0839-1.0007-5.3344 1.465-2.3205 1.6286-9.0909 1.373-7.5934 1.0333 0.06 0.7289 1.0145 0.96917 1.5407z" style="fill:#374837;stroke-width:0"/>
  <path d="m428.41 263.87-0.69774 3.1747-1.9779 1.3985" style="fill:none;stroke-width:.26458px;stroke:#584e45"/>
  <path d="m428.99 264.99-0.38194 2.8892-0.89466 0.71894" style="fill:none;stroke-width:.26458px;stroke:#584e45"/>
  <path d="m429.97 264.95-0.30904 2.2145 0.55919 1.0287" style="fill:none;stroke-width:.26458px;stroke:#584e45"/>
  <path d="m430.72 266.48 0.30837 1.219 2.0856 0.60956" style="fill:none;stroke-width:.26458px;stroke:#584e45"/>
  <path d="m424.77 186.39c-0.0894-0.0416 0.0308 2.2338-1.1927 1.8345-0.20045-0.439 0.0353-1.2215-0.75448-1.3198 0.0346 0.91125-0.2578 4.9443-1.2666 6.5422 1.1402 1.079-0.52306 3.6026 0.86351 4.6028 1.5846 1.526-2.7306 3.5917-4.5377 3.7879 3.249 2.2325-2.6706 0.87475-2.3782 3.4902-0.93113 4.3494 0.80144-2.1378 0.95704 0.47387 2.7353 0.25587-0.18058 1.8163-0.45991 3.6546-2.2016 0.78828-2.3274 4.1573 0.12557 2.2366 2.9052-0.79166 0.0177 0.0742-0.37414 1.5575 0.31385 0.21491 1.8814 1.7147 1.2826 0.99891 2.171-0.31849-1.1959 2.6504-1.1989-0.17415-1.683-1.4489-2.0582-4.6942-5.2436-3.3858-0.38397 0.18567-0.64312 0.30033-0.83871 0.38086 0.36481-0.0652 0.8582-0.0305 0.971 0.53071-0.59322 0.61681 2.4396 0.205 1.1529 2.2846 1.9976 0.1813 0.31187 0.57706 0.016 2.6526 2.2779 2.5483-2.762 4.9972-3.3187 8.2884 0.28027 0.0756 0.54878 0.23418 0.71469 0.48783 0.92214-0.86382 1.7004-2.3797 3.1828-2.6236-0.72208 1.8818-4.5619 3.4438-2.9507 6.0849 1.8239-2.4717-0.26253 0.25831 1.1276 0.47128-0.59238-1.0038 2.4666-0.89472 1.3751 1.1767-3.2797 0.19785-5.3421-3.2214-8.6982-4.5491-1.5484-1.945-2.9684 3.0688-1.448 1.8655 0.96739-1.2614 0.20187 0.019 0.39688 0.87695 0.0258-0.034 0.0505-0.0618 0.0765-0.0966 4.6e-4 0.0764-0.0106 0.16061-0.0274 0.24856 0.0662 0.16224 0.17408 0.30176 0.3576 0.38809 2.423-0.54231 0.20037 2.5136 1.912 2.4148-0.33666 2.2479 0.53906 1.6324 1.5363 0.29249 6e-3 0.99959-1.7872 3.1806-2.4629 5.3754 0.64234-0.33926 0.88456-0.27217-0.1018 0.35398-0.16238 0.65123-0.21184 1.2978-0.0724 1.91 1.3907-1.1822 1.3927 0.18527 2.3709 0.94516 1.3456-1.3886 3.2121-1.7814 0.49712-0.27491-1.0805 3.0788-4.879 0.72957-6.1903 3.0996-3.6194 1.7805 3.9184 0.2643 1.5105 2.8076-0.87271 2.6049-5.7816 1.0785-6.8006 2.5802-2.1902 1.4006 1.7685 0.0457 1.3245 2.081 1.4528-2.3933 1.1953 1.8734 2.2081-0.47025 0.70048 1.1947 1.2592 1.8982 2.7554 2.2216 3.1016-2.4539-0.48298 3.1805 2.1146 1.1829 0.0184 1.7151 2.0802 0.44483 2.282 1.2356-0.19937 0.14623-0.35138 0.2858-0.46716 0.4191 1.2755 0.0525 1.5803 0.71175 1.4842 1.5622 1.0843-6.7e-4 2.1282-0.55184 1.3493-1.8784 2.8436-0.2594 1.7538 1.9763 1.1296 3.4928-1.3783 0.90528-4.1424 4.9767-0.49971 3.5605 0.48824 0.60343 1.0819-0.75287 0.82424 0.31987-2.1293 1.071 0.50882 3.2443 1.3327 1.6826-0.17992 0.56849-0.24328 0.96899-0.22479 1.2402 0.1228-0.11561 0.13503 0.0639 0.22582 0.42788 0.33846 0.13826 0.99685-0.29378 1.6252-0.92552 1.4771-2.21 0.42456-1.1018 1.6521 0.50798 1.261-0.80088 4.2528-1.0818 6.0601 0.0853 2.1717 0.93383 2.8214-3.1716 4.8416-0.85266 1.2731-1.1062 2.9014-4.695 4.6498-1.4356 0.66974-2.5129 1.798-1.3045 3.3156-0.4501 2.0213 2.9659 1.1943-2.4958 2.6598-0.81597 1.3156-1.7536 2.2814 1.1865 3.6799 0.35192-0.24357-2.8628 1.9266-1.0242 0.63511 0.21859-0.31283-0.0906 0.18393 0.16208 0.8387 0.39015 0.16383-1.597 1.3822-0.75901 1.1984 0.30076 0.25478 0.0279 0.47266 0.0161 0.60255-0.0667-0.12009-2.9867 1.7871-0.59525 0.21445 0.3359 0.70913 0.56852 1.2801 0.526 1.8247 0.27853 0.13633-0.83677 0.5277-0.80502 0.75706-0.43925 0.81049-0.53378 1.676-1.1254 2.9636-0.46767-1.1051-2.1128-4.3105-2.1298-4.5155-4.6219 0.83713 0.10879 1.6646 0.43133 2.4686 0.87798 2.7318 0.4832 5.3655 2.8334 7.5194 4.8819 0.0629 0.0657 0.1276 0.12747 0.19223 0.18913 1.6204 0.28949 3.2386 0.18541 4.2742 0.4625-0.0496-0.14767-0.11249-0.28146-0.185-0.40462-0.84671-0.133-1.6813-0.28863-2.3828-0.6041-0.0878-0.17786-0.2372-0.45637-0.40204-0.76326-1.0727-0.17954-2.2225-0.29278-3.1259-0.70125-0.51644-1.0418-3.0084-5.1859-0.57051-3.7217 3.2635 2.1117-0.69437-2.5866 2.1105-0.42736-1.1938 0.87854 1.972-0.99911 3.5156-0.72399 1.3614-2.2799 3.9594 1.4553 4.7697-0.25166 0.0381 0.0922 0.0881 0.1889 0.14831 0.28525 0.71827-0.47327 1.5902-0.1357 2.4148 0.25425 0.0758-0.0693 0.15265-0.14342 0.23048-0.22841 0.23012 0.33564 0.45589 0.52911 0.68574 0.65164 0.63102 0.26162 1.177 0.35689 1.5172-0.16381-2.1256-2.6133-6.8196-2.5056-7.8755-6.1567 0.51533 0.10375-0.7871-2.1152-2.4613-2.3658-3.0111-2.5068 3.6799 2.0269 1.7549-1.0025-1.0082-3.7394-9.0952-2.137-7.5814-6.1738 2.8075 0.52847 0.17802-1.5139-1.2413-2.4076 1.2845 0.55719 2.2936-0.45714 3.5476-0.1509-1.4408-1.5594 1.5994-1.3364-0.69608-1.6309-1.756 0.74245-5.7991-1.7253-2.5363-0.95032 3.1052 1.532-0.77193-1.9085 1.9839-0.55449-0.48589-1.003-0.42115-1.5436-0.0636-1.7896-0.40567-0.33639-0.20057-0.54178 1.2428-0.19895 0.1282 0.0632 0.22442 0.10382 0.3328 0.15296 0.32496 0.0777 0.6595 0.18564 0.9803 0.30851 0.10966-9e-3 0.16152-0.0591 0.17105-0.13901-1.3179-1.502-3.288-2.7317-4.4183-4.6044 2.1758 0.48993 0.5098-1.1125-1.2159-1.7746-2.198 0.20636-5.4507-2.1779-1.5725-0.91932 3.9471 0.25344-0.1003-1.496-1.5317-2.9016 0.96176 0.14405-5.1758-2.4166-2.5182-2.1637 2.6264-1.5491-4.8661-3.9994-3.8638-3.9817 0.94405-0.91633 3.5058 1.616 2.8716 0.0481-2.0314-2.1421 1.2741-0.5191 0.22376-1.5317-1.9683-1.3868-6.6897-1.771-6.8259-3.068 0.0729-1.8959 4.3051 0.87564 3.0582-0.58136 2.6556 1.3334-5.8188-3.6424-3.5755-2.7482 0.0901 0.98031 1.9498-0.34009 2.0174-1.4268 0.5359-0.0619 0.89824-0.12632 1.125-0.19172-0.55553-0.2049-1.0232-0.42081-1.3276-0.6656-0.0512-8e-3 -0.0965-0.0175-0.14883-0.0258 0.0398 3e-3 0.0807 2e-3 0.12144 3e-3 -0.21073-0.1765-0.34199-0.36729-0.36432-0.57981 7e-3 -0.19423 0.0541-0.34414 0.12919-0.46095-1.5015-1.8819-5.8476-1.9897-4.7191-3.9202 4.3576 1.6399-2.5846-3.3072 0.31523-3.1202 1.7606-0.16842-5.7645-4.4984-1.3007-4.407-0.45101-1.4289 2.7522-1.2342-3e-3 -1.5141 1.451-1.8134-0.29025-1.3655-1.2433-0.14676-1.0631-1.6003-1.9888 1.0272-1.0552 2.3761-0.47239 3.4472-3.4599-1.1518-1.9146-1.8697 3.5087 1.0429-2.2576-3.2894 0.78186-1.9306 1.6928 0.22925-0.29876-0.96019-1.8092-1.3519 0.55318-1.8201 0.98897-2.0651-0.63252-3.4241-0.19224-1.0252-0.25954-1.3966-0.29455-1.4128zm-15.016 24.68c-0.19776 0.0354-0.35891 0.0986-0.39791 0.1266 2e-3 4e-3 5e-3 8e-3 7e-3 0.0114 0.0349-2e-3 0.16436-0.0448 0.39067-0.13797zm5.9986 2.1802c-0.0667-0.0457-0.0962-0.0532-0.0145 0.0532 4e-3 -0.0179 0.01-0.0355 0.0145-0.0532zm7.0704-26.346c-9e-3 -0.23062-0.0371-0.2708-0.0816-0.01 0.0295 2e-3 0.0546 6e-3 0.0816 0.01zm11.449 20.026c0.4768-7e-3 1.1348 0.9182 2.1342 1.1627-1.0237-0.15087-2.1469-0.27435-2.711-0.34158 0.16315-0.60284 0.34933-0.81793 0.57671-0.82114z" style="fill:#334233;opacity:.32101;stroke-width:0"/>
  <path d="m425.83 205.87c-0.0721-0.025 0.0234 1.8241-0.9741 1.4986-0.16379-0.35875 0.0289-0.99817-0.6165-1.0785 0.0283 0.74466-0.21071 4.0406-1.0351 5.3464 0.93176 0.88173-0.42718 2.9442 0.7059 3.7615 1.2949 1.247-2.2316 2.9351-3.7083 3.0954 2.655 1.8244-2.1825 0.71469-1.9435 2.852-0.76091 3.5542 0.65521-1.7472 0.78238 0.38706 2.2352 0.20909-0.14794 1.4842-0.37621 2.9864-1.7991 0.64417-1.9017 3.3974 0.10284 1.8278 2.3741-0.64693 0.0142 0.0607-0.30593 1.2728 0.25647 0.17562 1.5379 1.4014 1.0485 0.81649 1.7741-0.26027-0.97734 2.1656-0.97979-0.14262-1.3753-1.184-1.6819-3.8359-4.285-2.7668-0.31357 0.15163-0.52543 0.24529-0.68523 0.31109 0.29807-0.0532 0.70111-0.0242 0.79324 0.43408-0.48477 0.50405 1.9936 0.16713 0.94206 1.8666 1.6324 0.14816 0.25468 0.47176 0.0129 2.1678 1.8614 2.0824-2.2571 4.0837-2.712 6.7732 0.22904 0.0618 0.44889 0.19115 0.58446 0.39843 0.75357-0.7059 1.3895-1.9447 2.6009-2.1441-0.59007 1.5378-3.7284 2.8146-2.4117 4.9728 1.4904-2.0198-0.21406 0.21094 0.92191 0.38499-0.48408-0.8203 2.0154-0.73102 1.1234 0.96169-2.6801 0.16168-4.3656-2.6327-7.1081-3.7176-1.2653-1.5894-2.4253 2.5078-1.1829 1.5245 0.79053-1.0308 0.16465 0.0156 0.32401 0.71675 0.0211-0.0278 0.0413-0.0506 0.0625-0.0791 3.7e-4 0.0625-9e-3 0.13122-0.0222 0.20309 0.0541 0.13258 0.14201 0.24674 0.29197 0.3173 1.9801-0.44317 0.16395 2.0537 1.5627 1.973-0.27512 1.8369 0.44026 1.3342 1.2552 0.23926 5e-3 0.81685-1.4601 2.5989-2.0123 4.3925 0.52493-0.27723 0.72286-0.22229-0.0832 0.28939-0.13269 0.53217-0.17344 1.0604-0.0594 1.5606 1.1365-0.96608 1.138 0.15158 1.9374 0.77256 1.0996-1.1347 2.6253-1.4559 0.40669-0.22479-0.88299 2.516-3.987 0.59647-5.0586 2.5332-2.9578 1.455 3.2018 0.2161 1.234 2.2944-0.15059 0.44947-0.44932 0.74733-0.83303 0.95084 1.013 0.68033 0.16455 2.4726-0.3793 3.7941-0.0562 0.0369-0.11848 0.0877-0.17828 0.13332 0.26531 0.15395 0.57533 0.2761 0.97152 0.36174 2.5346-2.0053-0.39466 2.5993 1.728 0.96687 0.0151 1.4016 1.7001 0.36305 1.865 1.0092-0.16291 0.11949-0.28728 0.23368-0.38189 0.34261 1.0423 0.0429 1.2914 0.58196 1.2128 1.2769 0.88605-5.4e-4 1.7393-0.45122 1.1028-1.5353 2.3238-0.21198 1.433 1.6148 0.92294 2.8541-0.56395 0.3704-1.4111 1.3894-1.7436 2.1694 0.0659 0.10374 0.13756 0.20953 0.22014 0.31781 1.4614-0.92813 4.9289-1.2544 7.0233 0.0982 2.5168 1.0822 3.2693-3.675 5.6105-0.98754 1.4754-1.282 3.363-5.4414 5.3893-1.664 0.77617-2.9123 2.0839-1.5116 3.8427-0.52141 2.3425 3.4373 1.3841-2.8929 3.0825-0.9462 1.5247-2.0323 2.6436 1.3755 4.2643 0.40824-0.28227-3.3178 2.2331-1.187 0.7364 0.25322-0.72884-0.21111 2.3296 1.1882 3.0587 0.72347-0.13917-3.4613 2.0711-0.69 0.24857 0.38912 0.87717 0.70326 1.5724 0.60306 2.2422 0.26407-0.26529-0.73462-0.23046-1.2009 0.71417-0.63355 0.0635 0.0411 0.10839 0.0643 0.16537 0.0992 0.25044-0.16457 0.50824-0.32421 0.77825-0.46044-0.14112-0.39411-0.20632-0.68488 0.48265-0.20567 0.40335-0.13157 0.84255-0.17508 1.3389-0.0558 0.1479-0.0519 0.29593-0.10224 0.45113-0.14779-1.4572-2.0487-4.7556-2.2285-4.979-4.9449 2.5095 0.32611 4.9451 2.2862 7.0171 4.2023 1.0771-0.34176 2.5032 1.2927 3.1275 0.54364-0.15498-0.0529-0.3084-0.108-0.4532-0.17312-0.47046-0.95337-2.4235-4.2309-1.7384-4.638-0.19871-0.49106-1.0444-1.5262-2.0588-1.6779-2.4606-2.0485 3.0071 1.6565 1.434-0.81907-0.82393-3.0558-7.4325-1.7463-6.1955-5.0452 2.2943 0.43186 0.14541-1.237-1.0144-1.9673 1.0497 0.45533 1.8744-0.37376 2.899-0.1235-1.1774-1.2743 1.3069-1.092-0.56896-1.3327-1.435 0.60672-4.7391-1.41-2.0727-0.7767 2.5376 1.252-0.63039-1.5597 1.6216-0.4532-0.39707-0.81961-0.34435-1.261-0.0522-1.4619-0.33151-0.27489-0.16408-0.44293 1.0154-0.16278 0.10476 0.0517 0.18378 0.0848 0.27234 0.12505 0.26555 0.0635 0.53883 0.15177 0.80098 0.25218 0.0896-7e-3 0.13174-0.0484 0.13953-0.11368-1.077-1.2274-2.687-2.2323-3.6106-3.7626 1.778 0.40035 0.41651-0.90903-0.99374-1.45-1.7962 0.16863-4.4539-1.7798-1.2847-0.75137 3.2255 0.20711-0.0819-1.2227-1.2516-2.3714 0.78594 0.11772-4.2295-1.9746-2.0578-1.7678 2.1463-1.2659-3.977-3.2685-3.158-3.2541 0.77147-0.74881 2.8654 1.3205 2.3471 0.0393-1.66-1.7504 1.0407-0.42412 0.18242-1.2516-1.6084-1.1333-5.4666-1.4469-5.578-2.5068 0.0596-1.5493 3.518 0.71522 2.4991-0.47542 2.1701 1.0896-4.755-2.9766-2.9218-2.2459 0.0736 0.80109 1.5932-0.27779 1.6485-1.1658 0.43793-0.0506 0.73402-0.10314 0.91932-0.15658-0.45398-0.16744-0.83596-0.34411-1.0847-0.54416-0.0418-7e-3 -0.0787-0.0139-0.12144-0.0207 0.0325 2e-3 0.0659 2e-3 0.0992 2e-3 -0.17219-0.14424-0.2794-0.29969-0.29765-0.47336 6e-3 -0.15872 0.044-0.28126 0.10542-0.37672-1.227-1.5379-4.7788-1.6258-3.8566-3.2034 3.561 1.3401-2.1118-2.703 0.25786-2.5502 1.4388-0.13763-4.7107-3.676-1.063-3.6013-0.36855-1.1676 2.249-1.0084-3e-3 -1.2371 1.1858-1.4819-0.23712-1.1158-1.016-0.11989-0.86874-1.3077-1.6254 0.83919-0.86248 1.9415-0.38602 2.817-2.8271-0.94097-1.5642-1.5276 2.8672 0.85227-1.8451-2.6881 0.63872-1.5777 1.3833 0.18733-0.24416-0.78479-1.4785-1.1048 0.45205-1.4873 0.8083-1.6878-0.51676-2.7983-0.15685-0.83643-0.21217-1.1397-0.24082-1.1539zm-7.3685 21.95c-0.0545-0.0373-0.0787-0.0436-0.0119 0.0434 3e-3 -0.0146 8e-3 -0.0289 0.0119-0.0434zm5.7779-21.529c-7e-3 -0.18845-0.0303-0.22104-0.0667-8e-3 0.0241 1e-3 0.0446 5e-3 0.0667 8e-3zm9.3565 16.365c0.38964-5e-3 0.92731 0.74999 1.7441 0.94981-0.83658-0.12329-1.7544-0.22411-2.2154-0.27905 0.13332-0.49264 0.28548-0.66814 0.47129-0.67076zm-20.036 3.3822c-0.16161 0.0289-0.29318 0.081-0.32505 0.10387l6e-3 9e-3c0.0285-2e-3 0.13427-0.0367 0.31885-0.11266zm-8.8486 29.951c-1.3364 0.17197-2.8326 0.0719-3.3052 0.76843-0.13259 0.0848-0.23015 0.15389-0.3111 0.216 0.9361 0.8875 4.0423 0.79624 3.6163-0.98443zm54.285 8.309c9e-3 5e-3 0.0172 0.0114 0.0258 0.016 0.32993 0.13679 0.63079 0.21596 0.87798 0.14521-0.29217-0.0621-0.597-0.11253-0.90382-0.16123z" style="fill:#2a362a;opacity:.32101;stroke-width:0"/>
  <path d="m427.36 227.62c-0.0485-0.0168 0.0156 1.2272-0.65526 1.0082-0.11017-0.24129 0.0192-0.67151-0.41496-0.72554 0.019 0.50087-0.1416 2.7179-0.69608 3.5962 0.62671 0.59306-0.28723 1.9803 0.4749 2.5301 0.87094 0.83876-1.5012 1.9742-2.4944 2.082 1.7858 1.2271-1.4676 0.48064-1.3069 1.9182-0.51181 2.3906 0.44053-1.1756 0.52606 0.25993 1.5034 0.14064-0.0997 0.99826-0.25321 2.0087-1.2101 0.43328-1.2791 2.2851 0.0692 1.2294 1.5969-0.43513 0.0101 0.041-0.20567 0.85628 0.1725 0.11812 1.0345 0.94274 0.70538 0.54932 1.1932-0.17507-0.65775 1.4564-0.65939-0.0961-0.92504-0.79638-1.1311-2.58-2.882-1.8609-0.21092 0.10197-0.35348 0.16502-0.46096 0.20928 0.20049-0.0358 0.47185-0.0163 0.53382 0.29198-0.32606 0.33903 1.3408 0.11268 0.63355 1.2557 1.098 0.0996 0.17109 0.31701 9e-3 1.4578 1.252 1.4007-1.5182 2.7468-1.8242 4.5558 0.15405 0.0416 0.30207 0.12879 0.39326 0.2682 0.50686-0.47479 0.93447-1.3082 1.7492-1.4423-0.39688 1.0343-2.5077 1.8928-1.6221 3.3445 1.0025-1.3585-0.14395 0.14236 0.62012 0.25942-0.3256-0.55175 1.356-0.49207 0.75603 0.64647-1.8027 0.10874-2.9365-1.7704-4.7811-2.5001-0.85107-1.069-1.6315 1.6866-0.79581 1.0253 0.53172-0.69334 0.11088 0.0105 0.21807 0.48214 0.0142-0.0187 0.0276-0.034 0.0419-0.0532 2.5e-4 0.042-6e-3 0.0881-0.0145 0.13642 0.0364 0.0892 0.0955 0.16598 0.19637 0.21343 1.3318-0.29808 0.11028 1.3814 1.0511 1.327-0.18505 1.2355 0.29572 0.89719 0.84387 0.16071 3e-3 0.54942-0.98198 1.7485-1.3534 2.9549 0.35307-0.18647 0.48639-0.14987-0.0558 0.1943-0.0892 0.35794-0.11697 0.71362-0.0403 1.0501 0.76441-0.6498 0.76562 0.10168 1.3033 0.51935 0.7396-0.76322 1.7656-0.97897 0.27337-0.1509-0.5939 1.6923-2.6816 0.40112-3.4024 1.7038-1.9894 0.97865 2.1534 0.14516 0.82992 1.5431-0.10129 0.30232-0.30208 0.50287-0.56017 0.63975 0.68133 0.4576 0.11052 1.663-0.25528 2.5518-0.0378 0.0248-0.0797 0.0592-0.11989 0.0899 0.17845 0.10355 0.38724 0.18528 0.65371 0.24288 1.7048-1.3488-0.26555 1.7486 1.1622 0.65061 0.0102 0.9427 1.1438 0.24388 1.2547 0.67851-0.10958 0.0804-0.19321 0.15721-0.25684 0.23048 0.70109 0.0289 0.86829 0.39142 0.81546 0.85886 0.59597-3.7e-4 1.1697-0.30333 0.74156-1.0325 1.563-0.14259 0.9642 1.0862 0.62114 1.9198-0.0583 0.0383-0.12223 0.0895-0.18758 0.14624 2.4815 1.0081 3.2397-3.6752 5.5671-1.0036 1.4754-1.282 3.363-5.4414 5.3893-1.664 0.77617-2.9123 2.0839-1.5116 3.8427-0.52141 2.3425 3.4373 1.3841-2.8929 3.0825-0.9462 1.5247-2.0323 2.6436 1.3755 4.2643 0.40824-0.257-3.0207 1.8041-1.5253 1.0459-0.14624 0.75297 0.25376 1.489 0.69166 2.19 1.2118 0.23413 0.0133 0.43291-8e-3 0.55914-0.0889-0.13917-3.4613 2.0711-0.69 0.24857 0.38912 0.82238 0.65933 1.4846 0.61031 2.1161 0.32298-0.44902-0.86369-0.92953-1.9004-0.62218-2.0831-0.13366-0.33029-0.70262-1.0265-1.3849-1.1286-1.655-1.3778 2.0228 1.1142 0.9648-0.55087-0.55419-2.0554-4.9992-1.1748-4.1672-3.3936 1.5432 0.29047 0.0975-0.8322-0.68264-1.3234 0.70604 0.30626 1.261-0.25099 1.9503-0.0827-0.79194-0.85712 0.87876-0.73468-0.38292-0.89658-0.96518 0.40808-3.1876-0.94841-1.3942-0.52245 1.7068 0.84208-0.42382-1.0491 1.0909-0.30489-0.26706-0.55128-0.23164-0.84824-0.0351-0.9834-0.22298-0.1849-0.11018-0.29747 0.68317-0.10904 0.0705 0.0348 0.12336 0.0567 0.18293 0.0837 0.17861 0.0427 0.36266 0.10196 0.53899 0.1695 0.0603-5e-3 0.0883-0.0326 0.0935-0.0765-0.72438-0.82559-1.807-1.5013-2.4283-2.5306 1.1959 0.26927 0.27985-0.61124-0.6687-0.97514-1.2081 0.11343-2.9957-1.1972-0.86403-0.50539 2.1695 0.1393-0.0551-0.82264-0.84181-1.5953 0.52863 0.0792-2.8446-1.3281-1.3839-1.1891 1.4436-0.85146-2.6748-2.1982-2.1239-2.1885 0.5189-0.50366 1.9273 0.88815 1.5787 0.0264-1.1166-1.1774 0.69978-0.28524 0.12248-0.84181-1.0819-0.76225-3.6768-0.97327-3.7517-1.6862 0.0401-1.0421 2.3664 0.48096 1.681-0.31988 1.4596 0.7329-3.1983-2.002-1.9652-1.5105 0.0495 0.53882 1.0712-0.18664 1.1084-0.78393 0.29455-0.034 0.49394-0.0695 0.61857-0.10542-0.30535-0.11262-0.56238-0.23133-0.72967-0.36587-0.0281-5e-3 -0.053-9e-3 -0.0817-0.014 0.0219 9.9e-4 0.0443 1e-3 0.0667 1e-3 -0.11581-0.097-0.18771-0.20152-0.19998-0.31833 4e-3 -0.10675 0.0295-0.18952 0.0708-0.25373-0.82529-1.0344-3.2144-1.0933-2.5942-2.1544 2.3952 0.90137-1.4202-1.8184 0.17363-1.7157 0.96774-0.0926-3.1687-2.4723-0.7152-2.4221-0.24789-0.78537 1.5126-0.67815-2e-3 -0.83199 0.79756-0.99673-0.15931-0.7505-0.68316-0.0806-0.58432-0.8796-1.0935 0.56444-0.58033 1.3059-0.25964 1.8947-1.9015-0.63279-1.0521-1.0273 1.9285 0.57324-1.2407-1.8083 0.42995-1.0614 0.93042 0.126-0.16456-0.52783-0.99477-0.7431 0.30406-1.0004 0.54398-1.1351-0.34727-1.8821-0.10549-0.56259-0.143-0.76661-0.16226-0.77618zm-4.9563 14.763c-0.0367-0.0251-0.0532-0.029-8e-3 0.0295 2e-3 -0.01 5e-3 -0.0197 8e-3 -0.0295zm3.8861-14.481c-5e-3 -0.12675-0.02-0.14884-0.0444-5e-3 0.0162 6.7e-4 0.0296 3e-3 0.0444 5e-3zm6.2937 11.008c0.26208-3e-3 0.62369 0.50432 1.173 0.63872-0.56269-0.0829-1.1803-0.15063-1.4903-0.18759 0.0897-0.33135 0.19231-0.44936 0.31729-0.45113zm-13.479 2.2753c-0.10762 0.0195-0.19576 0.054-0.21704 0.0693l4e-3 6e-3c0.019-9.9e-4 0.0904-0.0251 0.21291-0.0755zm-5.95 20.145c-0.89891 0.11567-1.9052 0.0482-2.2231 0.51676-0.0892 0.057-0.15432 0.10343-0.20877 0.14521 0.62963 0.59694 2.7184 0.53572 2.4319-0.66197z" style="fill:#273227;opacity:.32101;stroke-width:0"/>
  <path d="m424.69 185.69c-0.0901-0.0372 0.0297 2.265-1.2103 1.8603-0.20335-0.44536 0.0359-1.2392-0.76533-1.3389 0.0351 0.92445-0.26127 5.0162-1.2847 6.6373 0.11277 0.10671 0.19779 0.22737 0.262 0.35915 0.90126-1.7259 1.1679-5.4343 1.1348-6.304-0.0271-3e-3 -0.0521-8e-3 -0.0816-0.01 0.0446-0.26098 0.0729-0.2208 0.0816 0.01 0.78981 0.0983 0.55403 0.88081 0.75448 1.3198 1.2235 0.39928 1.1032-1.8761 1.1927-1.8345 0.035 0.0163 0.10231 0.38762 0.29455 1.4128 0.59644 0.49988 0.91276 0.84905 1.049 1.1813 0.0941-0.60728-0.13706-1.0293-1.1286-1.8604-0.19504-1.0401-0.26317-1.4165-0.29869-1.433zm-1.9756 0.52141c-9e-3 -0.23396-0.0375-0.27454-0.0827-0.01 0.03 2e-3 0.0553 6e-3 0.0827 0.01zm3.1662 4.4571c-0.0569 0.16997-0.11703 0.35095-0.17984 0.55759 0.63351 0.16427 1.3375 0.46738 1.833 0.74879 1.4946 0.17642-0.18872-0.86163-1.6531-1.3064zm0.86713 1.6449c-0.57568-0.056 0.57046 1.022 0.99839 1.7394 0.42001-0.195-0.40343-1.0895-0.89039-1.7193-0.0403-0.01-0.0776-0.0172-0.108-0.0202zm4.579 0.0202c-0.0292-3e-3 -0.0613-3e-3 -0.0961 5.2e-4 -0.37848 0.0382-1.0617 0.46084-1.5451 1.079-0.86199-1.2976-1.6322 0.14479-1.4242 1.4748 0.0485-1.098 0.71004-1.9795 1.4366-0.88574 0.55001-0.70328 1.3591-1.1466 1.6692-1.0501 0.22108-0.40555 0.16397-0.59609-0.0403-0.61857zm-4e-3 1.2707c-0.0888 0.15297-0.21154 0.33178-0.38189 0.54467 0.1479 0.015 0.21671 0.0246 0.33176 0.0372 0.56882-0.42113 1.4008-0.43182 0.0501-0.58188zm-9.4682 0.28009c0.0678 0.97901-0.35634 2.2157-5.1e-4 3.0654-0.0969-0.98124 0.34173-2.2253 5.1e-4 -3.0654zm4.4359 1.3544c-0.0801 1.4243 1.9676 3.9431 2.3518 1.1395-0.0378-0.0546-0.0674-0.11423-0.0992-0.1726-0.45388 1.9199-1.9288 0.37269-2.2526-0.96687zm3.2897 0.75499c-0.52469 0.76072 2.1148 2.637 2.7833 3.5564 0.94983-0.23376-2.2194-2.3238-2.7833-3.5564zm-6.9339 2.3368c-0.13194 1.3844-3.4183 2.8646-4.9444 3.0303 0.22771 0.15647 0.40681 0.29383 0.55088 0.41806 1.8315-0.36921 5.1858-2.0606 4.3935-3.4484zm8.9488 1.8733c-0.46818 0.47646 1.2461 2.0655 1.6981 2.8587 0.71754-0.12832-1.2961-1.8838-1.6981-2.8587zm-12.92 2.2857c-0.26667 0.70059-3.609 0.41562-3.3858 2.4117-0.51007 2.3826-0.22875 1.5624 0.15968 0.7183 0.0242-0.11599 0.0291-0.15568 0.0584-0.29249-0.25785-2.3062 4.3101-1.5245 3.1678-2.8376zm13.11 1.0284c-0.4693 1.6099 3.3925 1.821 4.8302 3.5543 0.0182-0.14591 0.0598-0.26531 0.12144-0.36121-1.2896-1.6163-4.6464-1.9427-4.9516-3.1931zm-15.545 1.6428c8e-3 0.0653 0.0147 0.13909 0.0196 0.2217 0.0591 6e-3 0.10109 0.015 0.15503 0.0217-0.0416-0.1844-0.10223-0.2539-0.17466-0.2434zm1.1922 0.89607c-0.0896 0.68511-1.4513 1.7968-1.6392 3.0329-1.5515 0.55552-2.0855 2.3729-1.4335 2.7786-0.19413-0.66635 0.38434-1.9616 1.6444-2.4128 0.22956-1.5107 2.2373-2.8332 1.4283-3.3988zm19.175 1.1296c-0.0504 0.10426-0.0824 0.22996-0.0884 0.38499 0.0223 0.21252 0.15359 0.40331 0.36432 0.57981-0.0408-1.2e-4 -0.0817-4e-5 -0.12144-3e-3 0.0523 8e-3 0.0976 0.0174 0.14883 0.0258 0.18797 0.15118 0.44368 0.29039 0.73845 0.42375 0.29545-0.0437 0.5439-0.0877 0.70022-0.13281-0.56358-0.20786-1.0379-0.42708-1.3467-0.67541-0.0519-9e-3 -0.0978-0.0174-0.15089-0.0258 0.0403 3e-3 0.0817 2e-3 0.12299 3e-3 -0.21114-0.17684-0.34236-0.36845-0.36742-0.58084zm-2.7823 0.18397c-0.0438 0.10474-0.086 0.23075-0.12661 0.38085 0.56405 0.0672 1.6872 0.19071 2.711 0.34158-0.41386-0.10125-0.76623-0.31886-1.0744-0.53898-0.60455-0.0759-1.1488-0.14079-1.51-0.18345zm3.2954 1.6604c-3e-3 3.3e-4 -4e-3 7e-4 -7e-3 1e-3 -8.4e-4 0.0135-5e-3 0.0273-7e-3 0.0408 6e-3 -0.0139 9e-3 -0.0279 0.014-0.0419zm-25.492 1.0015c-0.38166 6e-3 -0.81695 0.10112-1.3219 0.30851-0.38953 0.18836-0.65269 0.30433-0.85111 0.38602 0.24826-0.0444 0.55301-0.0385 0.76274 0.13901 0.11434-0.0525 0.22938-0.10575 0.37724-0.17725 1.7518-0.71949 2.6526-0.0598 3.3895 0.91881-0.59342-0.86722-1.2482-1.5937-2.3564-1.5751zm23.101 0.31936c-0.29161 0.0681 3.4646 2.3436 4.2876 2.9347 0.0138-0.0636-0.0515-0.18447-0.22841-0.3912 1.8015 0.90456-1.4052-1.0314-3.0742-2.1564-0.32423 0.12442-0.5862 0.0723-0.61857-0.28009-0.21031-0.0838-0.32647-0.11628-0.36638-0.10697zm-25.275 0.37569c-0.19981 0.036-0.3626 0.0999-0.40205 0.12816 2e-3 4e-3 5e-3 8e-3 7e-3 0.0114 0.0352-2e-3 0.16658-0.0453 0.39533-0.13952zm0.94413 0.40463c0.0157 0.0422 0.0323 0.0831 0.0424 0.13332-0.18111 0.18831-0.0154 0.2832 0.25011 0.37982 0.0106-0.0145 0.022-0.0292 0.0372-0.045-0.0498-0.24763-0.17548-0.38892-0.32969-0.46818zm6.9536 0.26096c-0.0932 5e-3 -0.36262 0.0718-0.73484 0.17002-0.41862 0.33264-0.92631 0.80925-1.0759 1.3756 0.052 0.0356 0.14429 0.11284 0.24908 0.20258 0.36983-1.0533 1.9438-1.7684 1.5617-1.7482zm-1.8108 1.5456c-0.0677-0.0464-0.0974-0.0537-0.0145 0.0543 4e-3 -0.0182 0.01-0.0363 0.0145-0.0543zm-3.667-0.56379c0.11863 0.27045 0.0816 0.65029-0.26355 1.2082 0.16201 0.0147 0.29241 0.0319 0.40928 0.0501 0.32714-0.65743 0.16419-1.0255-0.14573-1.2583zm3.0546 0.62736c0.21494 0.31299 0.44413 0.61055 0.70125 0.87023-1e-3 -0.0327-4e-3 -0.0623-4e-3 -0.0966-0.25864-0.22267-0.48484-0.48967-0.69711-0.77359zm23.743 0.20463c0.0401 0.0468 0.0593 0.0779 0.0884 0.11628 0.0772 0.015 0.14509 0.0238 0.18862 0.0165-0.0775-0.0359-0.15362-0.0709-0.27699-0.13281zm-2.9812 0.24753c-0.0436 0.0907-0.0718 0.19929-0.077 0.33383 0.13627 1.2971 4.8577 1.6812 6.8259 3.068 0.0473 0.0456 0.0765 0.0803 0.10697 0.11576 0.27455 0.0141 0.42855-0.0238 0.0651-0.37414-1.9968-1.4069-6.7864-1.7966-6.9246-3.1125 4.3e-4 -0.0112 3e-3 -0.0202 4e-3 -0.031zm-23.115 0.54312c-0.0749 0.35575-0.76736 1.004-0.94878 2.2769 2.3108 2.5852-2.802 5.0694-3.3667 8.4083 0.11111 0.03 0.21842 0.0769 0.32039 0.13332 0.56504-3.2862 5.5922-5.7328 3.3166-8.2786 0.24789-1.739 1.4634-2.2975 0.67851-2.5399zm4.995 0.25735c-0.11125 0.42465-1.0638 1.0588-1.5932 0.61495 0.53201 1.1743 2.3856-0.38053 1.5932-0.61495zm24.14 2.9657c-0.26401 0.0664-0.29578 0.32311 0.50487 1.1674 0.049 0.12124 0.0769 0.21524 0.0899 0.29094 0.18974 0.0173 0.248-0.10945 0.0791-0.5271-0.43956-0.46349-0.63151-0.75223-0.67386-0.93121zm-2.2128 1.0092c-0.0546 0.0295-0.10685 0.0643-0.15399 0.11007-0.9352-0.0165 5.522 2.1153 4.2576 3.6592 1.7246-1.3534-3.2851-3.2681-4.1036-3.7693zm3.2318 4.0845c-1.2205 0.15544 3.8795 2.3032 2.9962 2.1709 1.085 1.0654 3.67 2.3277 3.1404 2.7662 1.3469-0.29237-1.709-1.7246-2.9208-2.9146 0.7673 0.11492-2.9172-1.4664-3.2158-2.0226zm-30.254 0.37569c-0.13701 0.0225-0.26606 0.059-0.39171 0.1018-0.9697 1.7895-4.4185 3.3476-2.8634 5.8968 0.0661-0.0897 0.093-0.12606 0.14934-0.20258-1.1735-2.4679 2.4104-3.984 3.1058-5.796zm-3.8406 2.1559c0.13686 0.0846 0.25907 0.19247 0.34984 0.33124 0.0313-0.0293 0.0615-0.0644 0.0925-0.0951-0.13075-0.10771-0.28247-0.18613-0.44235-0.23616zm-6.4156 0.4408c-1.1648-0.0745-1.9616 3.0092-0.9462 2.4774-0.21629-0.55819 0.43948-2.3524 1.3178-2.3415-0.12668-0.0828-0.25111-0.12821-0.37155-0.13591zm43.431 1.7317c-0.89855 0.0288 1.4624 1.449 3.1796 1.2878 1.2943 0.49654 2.5549 1.5223 2.1864 1.7973 1.0526-0.0202-0.40918-1.31-1.9218-1.8903-1.4613 0.1372-3.3819-0.85382-3.4251-1.1942-6e-3 7e-5 -0.0136-6.9e-4 -0.0191-5.2e-4zm-43.287 0.19276c-0.046-0.0118-0.17932 0.13393-0.48163 0.52813-2e-3 1e-3 -3e-3 2e-3 -5e-3 3e-3 -0.0397 0.25074-0.065 0.53367-8e-3 0.78548 0.0262-0.0345 0.0512-0.0629 0.0775-0.0982 4.7e-4 0.0775-0.0109 0.16295-0.0279 0.25218 0.0671 0.16458 0.1766 0.30619 0.36277 0.39377 0.081-0.0181 0.15632-0.0314 0.22737-0.0419-0.0807-0.0757-0.14048-0.16537-0.18138-0.26561 0.0168-0.088 0.0279-0.17215 0.0274-0.24856-0.026 0.0349-0.0507 0.0626-0.0765 0.0966-0.13407-0.58983 0.18605-1.3791 0.0847-1.4051zm7.9514 0.53485c-0.0233-6e-3 -0.16728 0.18537-0.45062 0.56947-0.0547 0.37189-3e-3 0.77446 0.50023 0.85163-9e-3 -0.0158-0.0152-0.0307-0.0227-0.046-0.46625-0.37027 0.033-1.36-0.0269-1.3751zm1.1085 0.91415c0.48243 0.21981 0.83248 0.75925 0.33641 1.7007-0.39418 0.0238-0.77054-6e-3 -1.1343-0.0755 0.44589 0.11396 0.91027 0.16715 1.4025 0.13746 0.57977-1.1003-0.0116-1.6424-0.60461-1.7627zm-8.1721 0.43305c-0.0165-7.4e-4 -0.0359 6.4e-4 -0.0532 5.2e-4 0.85987 0.44211-0.40135 2.5142 1.0237 2.4319-0.1984 1.3247 0.0193 1.6651 0.43408 1.4547-0.14188-0.16713-0.1795-0.60059-0.0584-1.4092-1.5512 0.0895 0.12865-2.4117-1.3462-2.4779zm46.795 0.98754c1.1303 1.8726 3.1004 3.1023 4.4183 4.6044-3e-3 0.0276-0.0139 0.0503-0.0279 0.0703 0.0668 0.0238 0.13467 0.0451 0.20051 0.0703 0.11125-9e-3 0.16396-0.0601 0.17363-0.14108-1.3045-1.4867-3.2367-2.712-4.3951-4.5351-0.10848-0.015-0.23073-0.0375-0.36949-0.0687zm-43.913 1.7828c-0.17935 0.24097-0.3511 0.44568-0.51625 0.62735-0.4592 1.1544-1.7754 2.9646-2.3358 4.7847 0.19116-0.10096 0.3402-0.162 0.44028-0.1881 0.70895-2.143 2.4176-4.2474 2.4117-5.224zm45.712 2.3228c-0.37682 6e-3 -0.36206 0.16493-0.10852 0.37517-0.33941 0.23342-0.40925 0.73753-5.1e-4 1.6454 0.11056 0.0464 0.22686 0.0969 0.37155 0.16795-0.49293-1.0175-0.42734-1.5659-0.0646-1.8154-0.2161-0.17919-0.25389-0.31917-0.0362-0.36381-0.0557-4e-3 -0.11724-0.01-0.16175-9e-3zm-0.90278 1.8438c-0.64534-0.0599 0.52664 1.1986 0.0258 1.2718 1.0574 0.29852-0.22402-1.0646 0.13332-1.2361-0.0588-0.0159-0.11695-0.0317-0.15916-0.0357zm-2.0257 0.72398c-1.0541-0.0433 0.58777 0.98421 2.112 1.1989-1.4492-0.29549-2.8437-1.2077-1.8495-1.1689-0.0949-0.013-0.19238-0.0271-0.26252-0.03zm-44.737 0.28267c-0.0689 4e-3 -0.20914 0.056-0.38706 0.14211-0.0836 0.0906-0.27149 0.23744-0.61546 0.45579-0.16474 0.66066-0.2149 1.3164-0.0734 1.9374 0.13101-0.11136 0.24639-0.19371 0.35502-0.26303-0.0901-0.55411-0.0363-1.1333 0.10904-1.7162 0.61648-0.39134 0.75294-0.56418 0.61185-0.55604zm48.807 0.91054c0.96238 0.175-1.1964 0.17745 0.062 1.5394-1.101-0.26889-2.0135 0.47987-3.0892 0.28939 1.2166 0.39965 2.2034-0.51599 3.4148-0.22014-1.3706-1.4834 1.1998-1.3814-0.38757-1.6087zm-48.566 1.0935c-0.034-2e-3 -0.0691-4.4e-4 -0.10594 4e-3 -0.0675 8e-3 -0.14228 0.0326-0.22118 0.0651 0.52017 0.0787 0.73596 0.89367 1.4149 1.4211 0.0699-0.0722 0.14192-0.13996 0.21394-0.2067-0.57794-0.53303-0.79175-1.2556-1.3017-1.2836zm3.3026 0.17001c-0.05-3e-3 -0.16293 0.0355-0.30954 0.10387-0.0334 0.0914-0.38867 0.36497-1.2542 0.8537-0.0614 0.0547-0.12159 0.11284-0.1819 0.17156-0.32445 0.85045-0.86332 1.2724-1.4996 1.494 0.80912-0.18591 1.5112-0.5955 1.8852-1.6609 1.1878-0.65911 1.4989-0.95455 1.3601-0.96222zm41.777 0.42685c1.4193 0.89373 4.0488 2.9361 1.2413 2.4076-0.54804 1.4615 0.16474 2.1829 1.342 2.6872-1.0022-0.50563-1.5552-1.2328-1.0496-2.5812 2.8139 0.52966 0.24772-1.4821-1.203-2.405-0.10859-0.0266-0.21826-0.0597-0.33073-0.10852zm-48.091 2.6267c-0.68521 0.14232-1.2894 0.43186-1.6769 1.1322-3.6718 1.8063 3.975 0.26779 1.5322 2.8479-0.1923 0.57399-0.5781 0.95007-1.0744 1.203 0.69557-0.23948 1.25-0.64366 1.4924-1.3674 2.408-2.5433-5.1299-1.0271-1.5105-2.8076 0.30163-0.54512 0.73569-0.83895 1.2371-1.0082zm54.973 3.9248c0.93072 0.44341 1.6774 1.0541 1.9404 2.0298 1.925 3.0294-4.766-1.5042-1.7549 1.0025 0.0603 9e-3 0.11896 0.0258 0.17828 0.0398-2.4714-2.1119 3.8791 2.1438 1.9787-0.84698-0.30133-1.1176-1.2273-1.7634-2.3425-2.2252zm-61.05 2.0872c-0.42838 0.11746-0.77025 0.29549-0.96738 0.58601-2.2219 1.4208 1.794 0.0462 1.3436 2.111 0.20548-0.33851 0.37674-0.54189 0.52296-0.65422-0.17402-1.4133-3.366-0.36955-1.3498-1.6588 0.10858-0.16003 0.26327-0.28404 0.45061-0.38395zm62.286 1.3643c1.1138 0.7116 1.8107 2.0272 1.4108 1.9466 0.40231 1.3911 1.3337 2.2352 2.449 2.8934-0.92786-0.62735-1.684-1.4296-2.0366-2.6489 0.45097 0.0908-0.47127-1.5694-1.8231-2.1911zm-60.602 0.34623c-0.0227-3e-3 -0.0464-2e-3 -0.0708 1e-3 -0.10312 0.0139-0.2224 0.0849-0.36225 0.2341 0.49344 0.15785 0.59917 1.6273 1.1514 0.69969-0.21804-0.2291-0.37756-0.89589-0.71831-0.93482zm1.3984 0.28422c-0.10809 0.2501-0.19938 0.41194-0.28215 0.52761 0.63308 1.027 1.2273 1.6519 2.6122 1.9513 0.1354-0.10713 0.25403-0.19381 0.36535-0.27182-1.4499-0.32936-2.0047-1.029-2.6954-2.2071zm3.8799 1.5906c-0.14782-4e-3 -0.38543 0.1006-0.74 0.34623 1.6038-0.77081-1.0079 3.544 1.3353 1.742-1.4433 0.87002 0.19356-2.0682-0.59532-2.0882zm0.59532 2.0882c0.0187 1.74 2.1103 0.45147 2.3151 1.2537-0.20224 0.14834-0.35642 0.29007-0.47387 0.4253 1.294 0.0532 1.6028 0.72166 1.5053 1.5844 0.63378-3.9e-4 1.2519-0.18719 1.5126-0.60203-0.3067 0.19069-0.73175 0.28085-1.1653 0.28112 0.0961-0.85043-0.20863-1.5097-1.4842-1.5622 0.11578-0.1333 0.26779-0.27287 0.46716-0.4191-0.20186-0.79075-2.2636 0.47954-2.282-1.2356-0.15275 0.11747-0.28219 0.20652-0.3948 0.2744zm5.5314 1.0439c-0.14807-2e-3 -0.31061 4e-3 -0.48834 0.0202 0.0562 0.0956 0.1001 0.18622 0.13798 0.27389 1.5068 0.0138 1.5835 0.92307 1.2904 1.956l0.23512-0.1018c0.3574-1.099 0.38605-2.1219-1.1751-2.1482zm49.923 1.4418c-0.44768-3e-3 -0.86527 0.19122-1.2056 0.76119-1.034-0.18429-2.7695 0.58416-3.4613 0.85628 0.0896 0.0643 0.1706 0.11972 0.27957 0.20361-1.2111 0.89127 2.0008-1.0134 3.5667-0.73433 1.3811-2.3129 4.0165 1.4764 4.8385-0.25528 0.0387 0.0935 0.0898 0.19164 0.15089 0.28939 0.72866-0.48012 1.6129-0.13773 2.4495 0.25787 0.04-0.0366 0.0814-0.0803 0.12195-0.12041-0.12703-0.11108-0.25413-0.25061-0.3824-0.4377-0.0778 0.085-0.15465 0.15911-0.23048 0.22841-0.82466-0.38995-1.6966-0.72752-2.4148-0.25425-0.0602-0.0963-0.1102-0.19309-0.14831-0.28525-0.60771 1.2802-2.2211-0.50084-3.5641-0.50953zm7.3846 0.24753c0.43987 0.30272 0.84013 0.6478 1.1762 1.0609-0.31881 0.48788-0.81917 0.43258-1.3999 0.20877 0.12872 0.12627 0.25725 0.22174 0.38705 0.29094 0.64016 0.2654 1.1938 0.36184 1.5389-0.1664-0.46589-0.57278-1.0566-1.0129-1.7022-1.3942zm-13.062 0.65629c-0.61787-0.0554 1.4977 2.7245-1.1539 1.0087-2.4379-1.4641 0.0541 2.68 0.57051 3.7217 0.0417 0.0188 0.0865 0.0341 0.12919 0.0517-0.71463-1.3498-2.6984-4.8139-0.39636-3.4313 3.1312 2.0261-0.28181-2.1186 1.7451-0.72192 0.0223-0.0169 0.0355-0.028 0.062-0.0475-0.52591-0.40485-0.81395-0.56859-0.95653-0.58136zm-8.9421 0.7922c0.0384 0.46729 0.18213 0.84761 0.3979 1.171-0.10912-0.24473-0.18149-0.51916-0.20722-0.83199 0.84925 0.11036 1.6887 0.43779 2.5042 0.8909 2.7714 0.4902 5.4434 2.8746 7.6285 4.9527 0.0638 0.0666 0.12925 0.12916 0.19482 0.19172 1.6439 0.29368 3.2856 0.18811 4.3362 0.46922-0.0503-0.14981-0.11403-0.28588-0.18759-0.41083-0.0733-0.0115-0.14553-0.0247-0.21859-0.0367 2e-3 5e-3 4e-3 0.0101 6e-3 0.0155-0.10541-0.0282-0.22058-0.0502-0.33745-0.0713-0.0426-8e-3 -0.0853-0.0149-0.12764-0.0227-1.0215-0.16043-2.4134-0.11911-3.8091-0.36845-0.0646-0.0617-0.12937-0.12347-0.19223-0.18913-2.1539-2.0484-4.7876-4.3987-7.5194-4.8819-0.80394-0.44665-1.6314-0.76919-2.4686-0.87798zm11.686 5.0214c0.0689 0.13013 0.15716 0.29249 0.20102 0.38137 0.0594 0.0267 0.12115 0.0509 0.18242 0.0755-0.0754-0.1431-0.13403-0.25874-0.22738-0.43253-0.0514-9e-3 -0.10435-0.016-0.15606-0.0243z" style="fill:#fff;opacity:.78545;stroke-width:0"/>
  <path d="m425.69 204.43c-0.0739-0.021 0.023 1.8804-1.0046 1.5451-0.16895-0.37004 0.0296-1.0292-0.63613-1.1121 0.0292 0.76809-0.21733 4.1675-1.0676 5.5144 0.27629 0.26146 0.35465 0.62506 0.3576 1.0284 0.72062-1.4264 0.93369-4.4106 0.90692-5.1149-0.0221-3e-3 -0.0426-7e-3 -0.0667-8e-3 0.0364-0.21329 0.0597-0.1807 0.0667 8e-3 0.64544 0.0803 0.45271 0.71974 0.6165 1.0785 0.99749 0.3255 0.90198-1.5236 0.9741-1.4986 0.0286 0.0142 0.084 0.31751 0.24082 1.1539 0.30608 0.25652 0.51887 0.46361 0.66507 0.65009 0.26608-0.82226 0.25945-1.1633-0.80408-2.0547-0.16178-0.86274-0.21903-1.1754-0.24857-1.1901zm-1.6407 0.43305c-7e-3 -0.19438-0.0311-0.22827-0.0687-8e-3 0.0249 1e-3 0.0459 5e-3 0.0687 8e-3zm2.9084 3.7941c-0.068 0.29709-0.20725 0.65244-0.36329 1.1658 0.37455 0.0971 0.77781 0.25509 1.1296 0.42167-0.49204-0.61153-0.93021-1.136 0.27233-0.59841 1.2498 0.16926 0.11727-0.57892-1.0387-0.98909zm4.1672 1.293c-0.31444 0.0317-0.88248 0.38298-1.2842 0.89659-0.79262-1.1932-1.4927 0.40041-1.0997 1.5715 0.15575-0.68279 0.61802-1.082 1.1198-0.32659 0.56202-0.71866 1.4545-1.1051 1.465-0.71003 0.49717-0.27248 1.0248-0.26286-0.43719-0.41135 0.61154-0.76425 0.55061-1.0518 0.23616-1.0201zm-3.6752 0.76171c-0.27913-0.0271-0.0521 0.28121 0.24442 0.65216 0.67889 0.14382 0.71806-0.0804 0.53072-0.42117-0.0479-4e-3 -0.0935-7e-3 -0.15193-0.015-0.31047-0.1388-0.50876-0.20488-0.62321-0.21601zm-4.1228 1.0594c-0.0614 0.78729-0.27296 1.6563 0.12247 2.2231 0.05-0.79292 0.28196-1.6724-0.12247-2.2231zm7.5546 0.43356c-2e-3 2e-3 -3e-3 4e-3 -5e-3 7e-3 3e-3 3e-4 4e-3 2.2e-4 7e-3 5.2e-4 -6.6e-4 -2e-3 -1e-3 -5e-3 -2e-3 -7e-3zm-3.7217 0.56896c-0.51153 1.0157 1.4919 3.79 1.8386 1.2594-0.10444-0.15089-0.17783-0.32224-0.22893-0.50074-0.40648 0.86331-1.235 0.1152-1.6097-0.75861zm2.9554 0.74001c-1.1534 0.30246 0.40284 1.5855 1.3746 2.5208 0.0964-0.0605 0.25503-0.0896 0.49868-0.0739 0.88139-0.0843-0.9897-1.4035-1.8733-2.4469zm-6.2652 1.8309c-0.5955 1.0155-2.8479 1.9845-3.9651 2.1058 0.69785 0.47952 0.89229 0.76196 0.80099 0.95394 1.6331-0.39257 4.4026-1.8775 3.2313-3.0055-0.024-0.0173-0.0454-0.0359-0.0672-0.0543zm7.8941 1.7027c-0.88476 0.047-0.11489 0.9534 0.52038 1.727 1.5083 0.44193 0.22057-0.75602-0.49454-1.7265-8e-3 2.7e-4 -0.0182-9.3e-4 -0.0258-5.2e-4zm-11.357 1.5803c-0.77305 0.31703-2.6602 0.38776-2.5063 1.7642-0.72213 3.3731 0.45566-0.98175 0.75085 0.0145 0.99561-0.8406 3.5037-0.48652 1.7554-1.7787zm11.299 0.97255c-0.90344 1.5454 2.4855 1.6621 3.7775 3.112 0.0124 3e-3 0.0242 8e-3 0.0367 0.0109-0.0104-2e-3 -0.0206-3e-3 -0.031-4e-3 0.0248 0.028 0.0502 0.0557 0.0734 0.0847-0.0614 0.0955-0.0994 0.218-0.10542 0.37672 0.0183 0.17367 0.12546 0.32912 0.29765 0.47336-0.0333 0-0.0667 4.5e-4 -0.0992-2e-3 0.0427 7e-3 0.0796 0.0137 0.12144 0.0207 0.0734 0.059 0.16132 0.11523 0.25631 0.17054 0.0439-0.11004 0.0729-0.22112 0.0796-0.32918 0.45171-0.0522 0.75713-0.1061 0.94826-0.16123-0.46826-0.1727-0.86225-0.35488-1.1188-0.56121-0.0431-7e-3 -0.0815-0.0142-0.12557-0.0212 0.0335 2e-3 0.068 2e-3 0.10232 2e-3 -0.17762-0.14877-0.28813-0.30869-0.30696-0.48782 6e-3 -0.16371 0.0457-0.29014 0.10904-0.38861-0.91462-1.1463-3.0809-1.5121-3.8535-2.2407-0.058-0.0206-0.0979-0.0307-0.16174-0.0548zm-12.22 2.1988c-0.34952 0.55361-1.0452 1.2824-1.1653 2.0727-1.4279 0.51127-1.8186 2.3082-0.98133 2.373 0.10046-0.55185 0.56272-1.2419 1.3534-1.525 0.21132-1.3906 2.262-2.5849 0.79323-2.9208zm14.138 0.85731c-0.18581 3e-3 -0.33797 0.17812-0.47129 0.67076 0.46093 0.0549 1.3788 0.15576 2.2154 0.27905-0.81677-0.19982-1.3544-0.95481-1.7441-0.94981zm-18.764 1.9983c-0.31711 5e-3 -0.6786 0.084-1.0981 0.25631-0.32344 0.1564-0.54211 0.25304-0.70693 0.32091 0.30745-0.0549 0.72301-0.0252 0.81804 0.44752-0.0971 0.10096-0.0771 0.16907 7e-3 0.22634 0.12225-0.0545 0.21302-0.0914 0.39274-0.17828 2.3679-0.97254 2.838 1.1309 3.9383 2.4107-0.0186-0.10867-0.0298-0.23147-0.03-0.3731-1.1969-1.0304-1.6088-3.1391-3.3212-3.1104zm-1.8071 0.57774c-0.16587 0.0299-0.30108 0.083-0.33383 0.10645l6e-3 9e-3c0.0293-2e-3 0.13809-0.0377 0.32763-0.11575zm20.942 0.21962c-0.16249 0.0379 1.2048 0.90894 2.3141 1.6185 0.86863 0.23275 1.6979 0.6413 1.1172-0.0372 1.3618 0.68376-0.74155-0.59764-2.1776-1.5389-0.43243 0.35542-0.91383 0.4873-0.95447 0.045-0.17186-0.0685-0.26658-0.0949-0.2992-0.0873zm-14.201 0.85112c-0.10762 6e-3 -0.40537 0.0827-0.9989 0.24443-0.24276 0.19008-0.45395 0.31544-0.63562 0.39015-0.0171 0.0438-0.0372 0.0866-0.0491 0.13178 0.0887 0.0607 0.29704 0.24415 0.5147 0.43718 0.41778-0.73495 1.4529-1.2186 1.1689-1.2035zm-1.6836 0.76636c-0.0562-0.0385-0.0813-0.0448-0.0124 0.045 3e-3 -0.0151 8e-3 -0.0299 0.0124-0.045zm-3.0065-0.0915c-0.0264 0.17268-0.10544 0.37798-0.25942 0.62684 0.39699 0.036 0.61718 0.0832 0.72502 0.15554 0.078-0.4224-0.16975-0.64154-0.4656-0.78238zm19.857 0.81029c-0.14355 0.0839-0.23518 0.23185-0.24442 0.47232 0.10228 0.97366 3.3617 1.3194 5.1392 2.2474 0.12833-0.31671 1.3811 0.21362 0.74621-0.39843-1.517-1.0688-4.9721-1.4314-5.641-2.3213zm-19.522 0.56379c-0.20089 0.32566-0.48197 0.79158-0.58136 1.4888 1.92 2.1479-2.3281 4.212-2.7972 6.9861 0.22417 0.0605 0.43786 0.18627 0.57878 0.38137 0.51522-2.6532 4.5412-4.6377 2.6965-6.7014 0.23529-1.6507 1.5383-2.0007 0.10335-2.1549zm3.9672 0.25528c-0.25487 0.16644-0.5814 0.26147-0.83458 0.1328 0.19745 1.8749 2.6708-0.35349 0.96584-0.10335 0.20178 0.2412 0.0731 0.14454-0.13126-0.0294zm20.496 2.4396c-0.29378-8e-3 -0.51052 0.0691-0.13487 0.56896 0.53428 0.25357 0.90198 0.41752 0.64595-0.21549-0.12335-0.13007-0.21742-0.23985-0.29714-0.339-0.0708-6e-3 -0.14343-0.0126-0.21394-0.0145zm-1.7451 0.76688c-0.14978 0.0111-0.28425 0.0606-0.39274 0.16588-0.69725-0.0123 3.6334 1.4371 3.6137 2.6494 0.95347-0.69067-0.27051-1.5649-1.5214-2.2366-0.38359-0.14399-1.0248-0.53575-1.5451-0.57775-0.0529-4e-3 -0.10458-5e-3 -0.15451-1e-3zm2.8804 3.3414c-0.0369 0.0263-0.0716 0.0528-0.11523 0.0785-2.1717-0.2067 2.8437 1.8856 2.0578 1.7678 0.7198 0.70689 2.2444 1.5188 2.5626 1.9916 1.6866-0.12961-1.1023-1.4041-2.1709-2.4536 0.53063 0.0795-1.4945-0.81488-2.3342-1.3844zm-25.229 0.3793c-1.2114 0.19934-1.8473 1.4382-2.6009 2.1441-0.0169-0.0258-0.0385-0.0469-0.0579-0.0703-0.58537 0.73769-0.89971 1.5514-0.29197 2.5476 0.11333-0.15358 0.17579-0.23873 0.2558-0.34727-0.35456-1.7508 2.1715-2.9101 2.6949-4.2742zm-8.7674 1.7947c-1.0238-0.0655-1.7066 2.8091-0.62528 1.9534 0.14357-0.18722 0.2302-0.28857 0.29558-0.35657 0.17345-0.57051 0.57635-1.1971 1.0558-1.1576-0.0442-0.0186-0.0865-0.0402-0.13125-0.0579-0.20393-0.25616-0.40522-0.36925-0.5948-0.38137zm1.0873 0.59893c0.068 0.0546 0.13669 0.1216 0.20567 0.20825 0.32164 0.12724 0.6276 0.27975 0.92346 0.44649-0.36055-0.23941-0.73406-0.46332-1.1291-0.65474zm34.891 1.1467c-0.99066-0.0741 1.0376 1.1866 2.497 1.0495 0.78032 0.29936 1.543 0.83336 1.7699 1.1834 1.4008 0.21206 0.0755-1.0202-1.2981-1.5472-0.77963 0.0732-1.7121-0.24015-2.2924-0.5488-0.30346-0.0828-0.52561-0.12566-0.67644-0.13694zm-35.475 0.15451c-0.0376-0.01-0.14622 0.10936-0.39326 0.4315-0.20501 0.16224-0.34337 0.18435-0.42788 0.11834 2e-3 0.0829 9e-3 0.16511 0.0269 0.24287 0.0218-0.0287 0.0422-0.0522 0.0641-0.0816 3.9e-4 0.0645-9e-3 0.13516-0.0227 0.20928 0.0558 0.13675 0.14661 0.25486 0.30128 0.32763 0.17019-0.0381 0.31098-0.0534 0.43098-0.0527 6e-3 -0.0429 0.0142-0.0873 0.014-0.12609-0.0212 0.0285-0.0414 0.0513-0.0625 0.0791-0.10956-0.48203 0.15194-1.127 0.0692-1.1482zm6.4978 0.43718c-0.0238-6e-3 -0.17714 0.20538-0.55655 0.72037 0.0669 0.0819 0.16927 0.14233 0.32297 0.16588-0.13158-0.22298-0.0468-0.37829 0.12868-0.45785 0.0494-0.22831 0.12841-0.42249 0.1049-0.4284zm1.0025 0.76895c0.158 0.24557 0.1878 0.60695-0.077 1.1095-0.85458 0.0515-1.6112-0.18923-2.3322-0.57826 0.8654 0.56058 1.76 0.95042 2.8066 0.88728 0.44212-0.83905 0.0506-1.2829-0.39739-1.4185zm-6.7748 0.33176c-0.0548-2e-3 -0.12015 3e-3 -0.18603 9e-3 0.19563 0.61038-0.36471 1.7927 0.62063 1.7358-0.20094 1.3417 0.1114 1.4705 0.60875 1.032-8e-3 -0.18727 9e-3 -0.43221 0.0568-0.75241-1.2676 0.0732 0.10504-1.9707-1.1002-2.0247zm38.24 0.80719c0.83887 1.3898 2.2398 2.3479 3.2975 3.4313 0.26127 0.0647 0.52876 0.15055 0.786 0.24908 0.0924-7e-3 0.13562-0.0499 0.14366-0.11731-1.0243-1.1674-2.515-2.1404-3.4882-3.5223-0.12157 0.0491-0.35255 0.0462-0.73897-0.0408zm-35.885 1.4568c-0.44246 0.59448-0.85437 1.0105-1.0955 0.97617-0.49149 0.91732-1.2407 2.0957-1.6061 3.2825 0.54144-0.28595 0.74562-0.22909-0.0858 0.29869-0.13687 0.54892-0.1791 1.0938-0.0615 1.6097 0.26446-0.22481 0.46743-0.336 0.63562-0.37259-0.0201-0.36337 0.0241-0.73682 0.11782-1.1126 0.80605-0.51168 0.60812-0.56662 0.0832-0.28939 0.55222-1.7936 2.0173-3.5756 2.0123-4.3925zm37.355 1.8981c-0.30789 5e-3 -0.29556 0.13515-0.0884 0.30696-0.23601 0.16234-0.31089 0.4858-0.1235 1.0346 0.13367 0.0122 0.3605 0.0922 0.72398 0.27078-0.40956-0.8454-0.35513-1.3006-0.0537-1.5079-0.0281-0.0233-0.0473-0.0445-0.0682-0.0661-0.15931-0.0246-0.2953-0.0398-0.39016-0.0382zm-0.8046 1.5069c-0.26012 0.035 0.0827 0.50825 0.1726 0.80512 0.90009 0.33989 0.45393-0.27778 0.30023-0.67696-0.23539-0.0991-0.38958-0.13937-0.47283-0.12816zm-1.5885 0.5917c-1.1342-0.0465 1.5525 1.4311 2.8081 0.9002 1.8181 0.23329-0.44952 0.0732 0.48059 1.2232 0.21613-0.0246 0.4374-0.0229 0.66869 0.0336-1.2145-1.3144 1.3478-1.1263-0.58704-1.3746-0.99825 0.42207-2.8668-0.38507-3.1383-0.75603-0.0856-0.0122-0.17006-0.0238-0.23203-0.0264zm-36.447 1.8717c-0.0711 9e-3 -0.15123 0.0374-0.23823 0.0796 0.25183 0.24279 0.45831 0.69396 0.87281 1.016 0.0979-0.10105 0.19957-0.19359 0.30128-0.28164-0.34639-0.41915-0.53113-0.86406-0.93586-0.8139zm2.7854 0.13539c-0.14593-8e-3 -0.89922 0.37303-1.5177 1.0113-0.0886-0.0688-0.1661-0.1442-0.23771-0.22169-0.94077 2.4984-4.0974 0.57028-5.1935 2.5513-3.0508 1.5008 3.3024 0.22306 1.2728 2.3668-0.15532 0.46361-0.4636 0.7709-0.85938 0.98082 0.9005 0.6048 0.37631 2.0489-0.14521 3.3125l0.82527-0.3576c0.48563-1.1921 0.92793-2.5134 0.0868-3.0784 0.38371-0.20351 0.68244-0.50137 0.83303-0.95084 1.9677-2.0783-4.1918-0.83942-1.234-2.2944 1.0716-1.9367 4.1756-0.0172 5.0586-2.5332 0.97065-0.53862 1.2245-0.78028 1.111-0.78652zm36.596 0.17983c-0.42575 8e-3 -0.82618 0.1498-1.2351 0.23875 0.42356-8e-3 0.82442-0.14657 1.2351-0.23875zm-2.4557 0.1695c0.94154 0.59289 2.5348 1.8042 1.8738 2.0082 1.6343 0.19073 0.0719-1.1058-1.0744-1.8748-0.25589 0.0164-0.51961-0.0119-0.79943-0.13333zm1.0144 1.9673c-1.237 3.2988 5.3716 1.9894 6.1955 5.0452 0.42945 0.67585 0.33254 0.88939 0.0171 0.88676 0.75592 0.27779 1.3933 0.3547 0.69867-0.73845-0.84358-3.1286-7.5614-1.8234-6.413-5.1315-0.13741-7e-3 -0.29459-0.0237-0.49816-0.062zm-44.84 4.9268c-0.77391 0.0781-1.4342 0.21398-1.7224 0.63872-0.13676 0.0874-0.23742 0.15865-0.32091 0.22272 0.59143 0.56072 2.02 0.73996 2.9394 0.37466-0.76758 0.05-1.6017-0.14983-2.0144-0.54106 0.081-0.0621 0.17851-0.13122 0.3111-0.216 0.16295-0.24015 0.44941-0.38449 0.80718-0.47904zm49.009 0.29352c-0.142-0.0206-0.0224 0.13177 0.59273 0.64389 1.0144 0.15178 1.8601 1.1869 2.0588 1.6779-0.68511 0.40708 1.2679 3.6846 1.7384 4.638 0.1448 0.0651 0.29822 0.1202 0.4532 0.17312-0.57534 0.69042-1.8314-0.64036-2.868-0.58601 0.14911 0.13462 0.30077 0.26884 0.44648 0.40359 1.111-0.35251 2.5823 1.3333 3.2262 0.56069-0.15985-0.0546-0.31831-0.11112-0.46767-0.17828-0.48527-0.98338-2.4998-4.3643-1.7932-4.7842-0.20497-0.50652-1.077-1.5741-2.1234-1.7306-0.35407-0.29477-0.5445-0.47073-0.62218-0.56793-0.2857-0.12451-0.5392-0.2353-0.6413-0.25011zm-5.3015 2.3869c0.041 0.49801 0.18622 0.90989 0.40359 1.2645l0.35554 4e-3c-0.14411-0.3035-0.24144-0.64461-0.27389-1.0392 0.62869 0.0817 1.2527 0.26463 1.8681 0.52038-0.77087-0.37788-1.5584-0.64601-2.3533-0.74931zm13.972 5.7361c9e-3 5e-3 0.0179 0.0118 0.0269 0.0165 0.3403 0.14109 0.6504 0.22283 0.90537 0.14987-0.30137-0.0641-0.61576-0.11616-0.93224-0.1664z" style="fill:#fff;opacity:.77052;stroke-width:0"/>
  <path d="m427.32 226.98c-0.05-0.0173 0.0163 1.2662-0.67593 1.0402-0.11368-0.24898 0.0196-0.69252-0.42839-0.74827 0.0196 0.51681-0.14617 2.8041-0.71831 3.7104 0.10092 0.0955 0.16027 0.21257 0.19637 0.34158 0.47815-0.96566 0.61939-2.954 0.60152-3.4251-0.0148-2e-3 -0.0282-5e-3 -0.0444-5e-3 0.0244-0.14367 0.0394-0.12158 0.0444 5e-3 0.43416 0.054 0.30479 0.48425 0.41496 0.72554 0.67089 0.21894 0.60676-1.025 0.65526-1.0082 0.0193 0.01 0.0568 0.21359 0.16226 0.77618 0.2963 0.24833 0.46593 0.42854 0.55139 0.59583 0.11834-0.43652 0.0469-0.67199-0.5917-1.2072-0.10885-0.58051-0.14756-0.79111-0.16743-0.80099zm-1.1043 0.29198c-5e-3 -0.1308-0.0208-0.15375-0.046-5e-3 0.0167 6.9e-4 0.0307 3e-3 0.046 5e-3zm1.82 2.5099c-0.0473 0.14332-0.0995 0.291-0.16071 0.49248 0.16024 0.0416 0.32845 0.10196 0.49196 0.16743-0.0522-0.13091 0.0504-0.15533 0.50539 0.0481 0.89093 0.12065-0.0165-0.4474-0.83664-0.70797zm2.9414 0.91261c-0.21153 0.0213-0.59376 0.25746-0.86403 0.60306-0.4697-0.70708-0.88956 0.0411-0.80305 0.76791 0.0942-0.48627 0.41381-0.78959 0.76223-0.2651 0.27719-0.35446 0.6736-0.58758 0.8692-0.58343 0.27508-0.39082 0.22281-0.54134 0.0356-0.52244zm-2.5265 0.17776c-0.27719-0.0269 0.16546 0.42215 0.43977 0.79995 0.38484 4e-3 0.13647-0.35449-0.14159-0.70383-0.13379-0.0545-0.23917-0.0904-0.29818-0.0961zm2.5936 0.53382c-0.0312 0.10751-0.11778 0.26109-0.28887 0.47491 0.0421 4e-3 0.0574 6e-3 0.0946 0.0103 0.23179-0.39688 1.0668-0.38736 0.1943-0.48524zm-5.3061 0.28577c-4.1e-4 0.53723-0.19405 1.1768 0.0145 1.6164-0.0153-0.53785 0.19487-1.1858-0.0145-1.6164zm2.4867 0.65371c-0.20783 0.73826 1.043 2.3964 1.2671 0.76068-0.0225-0.0325-0.0403-0.0679-0.0589-0.10284-0.28835 0.83306-1.0242 0.0476-1.2082-0.65784zm1.8717 0.47077c-0.54945 0.32655 0.84607 1.3481 1.3498 1.9213 0.0346-9.4e-4 0.07-2e-3 0.11163 1e-3 0.67443-0.0646-1.0485-1.2044-1.4614-1.9224zm-3.9341 1.3121c-0.18684 0.74965-1.9252 1.5239-2.7487 1.6133 0.18906 0.12991 0.31148 0.23389 0.40049 0.32557 1.0363-0.22059 2.8951-1.1749 2.3482-1.9389zm5.0503 1.0268c-0.49207 0.14898 0.43868 1.0318 0.78031 1.5327 0.70347 0.0927-0.48157-0.93101-0.78031-1.5327zm-7.2693 1.2433c-0.22099 0.35878-2.0003 0.23212-1.8784 1.3224-0.33444 1.5621-0.0629 0.66095 0.2036 0.16485 0.0546-1.1279 2.4738-0.7076 1.6748-1.4872zm7.3344 0.49299c-0.53429 1.0212 1.801 1.0929 2.6153 2.1136-0.041 0.0637-0.066 0.14605-0.0703 0.25166 0.0325 0.0109 0.0638 0.0243 0.0977 0.0326-0.0315-5e-3 -0.0623-8e-3 -0.094-0.0124 0.0176 0.1094 0.0862 0.20837 0.19585 0.30024-0.0224 0-0.0448-4e-5 -0.0667-1e-3 0.0287 5e-3 0.0536 9e-3 0.0817 0.014 0.0967 0.0778 0.22955 0.1495 0.37827 0.21859 0.24454-0.031 0.42911-0.0632 0.54157-0.0956-0.31508-0.1162-0.5803-0.23841-0.75292-0.37724-0.029-5e-3 -0.0546-9e-3 -0.0842-0.0145 0.0226 1e-3 0.0456 1e-3 0.0687 1e-3 -0.11951-0.10009-0.19353-0.20813-0.20619-0.32866 4e-3 -0.11015 0.0303-0.19575 0.0729-0.262-0.73958-0.92695-2.695-1.0949-2.7776-1.8402zm-8.6031 1.0413c-0.0211 4e-3 -0.0442 0.02-0.0682 0.045 3e-4 5e-3 1e-3 7e-3 2e-3 0.0114 0.0538 5e-3 0.0948 0.0128 0.14107 0.0196-0.0209-0.0505-0.0449-0.0809-0.0744-0.076zm0.58136 0.45424c-0.0729 0.38443-0.80629 0.99557-0.90951 1.6748-0.74505 0.26677-1.067 1.0511-0.91312 1.4118 0.0313 0.0415 0.0621 0.0838 0.0925 0.12713 0.0364 0.0275 0.0801 0.0456 0.13178 0.0537-0.14129-0.35302 0.17107-1.104 0.8878-1.3606 0.13193-0.86823 1.3288-1.6222 0.71055-1.9069zm9.1472 0.64595c-0.0471 0.0716-0.0909 0.17359-0.13177 0.32453 0.31002 0.037 0.92766 0.10469 1.4903 0.18759-0.27277-0.0667-0.49888-0.22545-0.68988-0.36794-0.27913-0.0339-0.52597-0.0622-0.68936-0.0816 7e-3 -0.0247 0.0139-0.0401 0.0207-0.0625zm1.8614 1.0118c-0.0414 5e-3 -0.0704 0.0112-0.11628 0.0165-7e-3 0.10877-0.0467 0.22186-0.10696 0.33073 0.0926-0.10841 0.17439-0.22542 0.22324-0.34727zm-14.311 0.54674c-0.19751 0.0123-0.41981 0.0657-0.67386 0.17001-0.21764 0.10523-0.36504 0.16982-0.47594 0.21549 0.15933-0.0284 0.36145-0.0211 0.47542 0.12816 0.0875-0.0386 0.15952-0.0683 0.29404-0.13332 0.63022-0.25885 1.0587-0.19075 1.3942 0.0362-0.22306-0.22689-0.48251-0.38907-0.82424-0.41548-0.0605-5e-3 -0.12382-5e-3 -0.18965-1e-3zm12.885 0.19482c-0.16677 0.0389 2.0824 1.3957 2.4097 1.6516 0.11245 8e-3 0.12463-0.0504-0.045-0.24856 1.0191 0.51172-0.82737-0.60183-1.7498-1.2268-0.21053 0.10593-0.39325 0.10216-0.41341-0.1173-0.1156-0.0461-0.1796-0.064-0.20154-0.0589zm-14.037 0.1912c-0.11105 0.0201-0.2018 0.0561-0.22376 0.0718l4e-3 6e-3c0.0196-1e-3 0.0932-0.0255 0.21963-0.0775zm0.51935 0.19585c0.0141 0.0308 0.0256 0.0653 0.0336 0.10491-0.12637 0.13139 0.0376 0.18063 0.25269 0.25321 6e-3 -0.0175 0.0179-0.0367 0.0388-0.0584-0.0418-0.20779-0.17884-0.28283-0.32504-0.29973zm3.9656 0.18552c-0.0608 3e-3 -0.2416 0.0489-0.52452 0.12506-0.22423 0.18372-0.47755 0.43307-0.55604 0.72967 0.0362 0.0248 0.11343 0.0923 0.19224 0.16071 5e-3 3e-3 5e-3 1e-3 0.0109 5e-3 0.16182-0.61147 1.0948-1.032 0.87747-1.0206zm-0.87747 1.0206c-3.2e-4 1e-3 -7.1e-4 2e-3 -1e-3 3e-3 0.22015 0.1918 0.52157 0.46664 0.58756 0.50126-0.19908-0.17201-0.49123-0.4391-0.58653-0.50436zm-0.20309-0.16588c-0.0379-0.0259-0.0552-0.0299-9e-3 0.0305 2e-3 -0.0103 5e-3 -0.0204 9e-3 -0.0305zm-2.1218-0.4222c0.13595 0.15303 0.16851 0.38779-0.076 0.7829 0.14008 0.0127 0.24754 0.0275 0.32918 0.0455 0.263-0.50299 0.0238-0.70996-0.25321-0.82838zm13.417 0.55966c-0.10386 0.055-0.17076 0.15582-0.17725 0.32453 0.0749 0.71293 2.6698 0.92395 3.7517 1.6862 0.0417 0.0402 0.0681 0.0712 0.0868 0.0977 0.22474 0.017 0.43798 0.0514 0.17725-0.19999-1.1163-0.78653-3.7943-1.0043-3.8716-1.7399 3e-3 -0.0657 0.0142-0.1214 0.0331-0.16847zm1.5038 5e-3c0.0106 0.0124 0.014 0.0197 0.0233 0.031 0.0328 0.01 0.0574 0.0141 0.0858 0.0212-0.0354-0.0169-0.0605-0.0278-0.10904-0.0522zm-14.454 0.41031c0.011 0.18898-0.42486 0.5507-0.53329 1.3126 1.2919 1.4453-1.5669 2.8344-1.8826 4.701 0.15896 0.0429 0.31156 0.13262 0.40566 0.27646 0.0612-0.0574 0.1211-0.12079 0.18087-0.18654-0.0769-0.0589-0.16527-0.10227-0.25735-0.12713 0.30595-1.809 3.0762-3.1551 1.8242-4.5558 0.14523-1.0208 0.89154-1.3013 0.26251-1.4206zm2.7936 0.1571c-0.0223 0.20482-0.44744 0.52339-0.76119 0.43615 0.35831 0.48617 1.3054-0.36821 0.76119-0.43615zm13.468 1.6268c-0.24235-6e-3 -0.41719 0.065 0.14108 0.65371 0.0302 0.0747 0.043 0.12751 0.0486 0.17105 0.2277 0.0926 0.34525 0.0845 0.21136-0.2465-0.29918-0.31547-0.39203-0.48566-0.37931-0.57671-7e-3 -3.1e-4 -0.0145-1e-3 -0.0217-2e-3zm-1.1813 0.51883c-0.0973 9e-3 -0.18548 0.0398-0.25631 0.10852-0.54926-0.01 3.5416 1.3289 2.1353 2.1808 0.0615-8e-3 0.14144-0.0108 0.26613 1e-3 1.4896-0.87858-2.76-2.2683-2.1916-2.2583 0.0142-0.0137 0.0311-0.0209 0.0465-0.032zm1.648 2.2882c-0.83494 0.0398 2.0991 1.2721 1.6035 1.1978 0.77477 0.76087 2.9348 1.7028 0.92863 1.5984 0.0824 0.0239 0.16336 0.0472 0.26148 0.0791 2.2386 0.14374-0.0568-0.84917-0.86868-1.6464 0.49047 0.0735-2.2628-1.0894-1.7296-1.2211-0.0775-7e-3 -0.14583-0.0101-0.19534-8e-3zm-16.672 0.21135c-0.10783 0.0178-0.20851 0.0486-0.30386 0.0884-0.49055 1.0281-2.5191 1.906-1.6309 3.3621 0.13172-0.1785 0.14858-0.1965 0.21704-0.28836-0.61105-1.3426 1.3378-2.1719 1.7177-3.1621zm-5.8482 1.5493c-0.68891-0.0441-1.1488 1.89-0.42117 1.3141 0.0414-0.054 0.0673-0.0847 0.0982-0.12299-0.0563-0.28182 0.1589-0.90972 0.48369-1.1446-0.0546-0.0282-0.10837-0.0432-0.16071-0.0465zm24.066 0.83096c-0.34939 0.0252 0.35078 0.4918 1.1183 0.65577-0.74282-0.2462-1.2572-0.6818-0.55655-0.55604-0.2152-0.0596-0.37252-0.0909-0.47749-0.0987-0.0329-2e-3 -0.0609-3e-3 -0.0842-1e-3zm-23.776 0.1049c-0.0253-6e-3 -0.0984 0.0737-0.26458 0.29042-0.0861 0.0681-0.15426 0.0983-0.20774 0.10181-0.0272 0.15218-0.0499 0.32346-0.0134 0.48369 0.0147-0.0193 0.0281-0.035 0.0429-0.0548 2.6e-4 0.0433-6e-3 0.0907-0.0145 0.14056 0.0376 0.092 0.0985 0.17118 0.20257 0.22014 1.3742-0.30758 0.11339 1.4255 1.0842 1.3694-0.14219 0.94941 0.0972 0.99678 0.46198 0.64595-0.10269-0.0634-0.13767-0.30272-0.063-0.80098-0.94082 0.0543 0.28072-1.6251-1.0511-1.327-0.10088-0.0474-0.15997-0.12423-0.19637-0.21343 9e-3 -0.0483 0.0147-0.0944 0.0145-0.13642-0.0143 0.0192-0.0277 0.0345-0.0419 0.0532-0.0737-0.32422 0.10217-0.75826 0.0465-0.77256zm4.3703 0.29404c-0.0161-4e-3 -0.13495 0.16016-0.39275 0.51005-0.0187 0.19361 0.026 0.38903 0.28629 0.42891-0.0772-0.13079-0.0423-0.22587 0.0455-0.28422-0.10956-0.242 0.0895-0.64748 0.061-0.65474zm21.545 0.40618c-0.0485 5e-3 -0.0993 3e-3 -0.14934 4e-3 0.85466 0.40123 1.5417 1.1209 0.44235 0.87334 0.62126 1.0293 1.7039 1.705 2.4283 2.5306-5e-3 0.0439-0.0332 0.0715-0.0935 0.0765-0.17633-0.0675-0.36038-0.1268-0.53899-0.1695-0.0596-0.027-0.11243-0.0489-0.18293-0.0837-0.79335-0.18843-0.90615-0.0759-0.68317 0.10904-0.1965 0.13516-0.23192 0.43212 0.0351 0.9834-1.5147-0.74422 0.61589 1.147-1.0909 0.30489-0.93433-0.22192-0.77543 0.0396-0.27544 0.2837-0.0959-0.12384 0.0584-0.18009 0.66869-0.0351 1.7612 0.86891-0.43746-1.0826 1.1255-0.31471-0.27557-0.56885-0.2389-0.87494-0.0362-1.0144-0.23009-0.19079-0.11375-0.30708 0.70487-0.11265 0.0727 0.0359 0.12715 0.0584 0.18862 0.0863 0.1843 0.0441 0.3741 0.10548 0.55604 0.17518 0.0622-5e-3 0.0912-0.0338 0.0966-0.0791-0.74746-0.8519-1.8647-1.5491-2.5058-2.6112 1.234 0.27786 0.28889-0.63064-0.68988-1.0061zm-21.105 0.0806c-0.11323 5e-3 -0.20889 0.0419-0.2589 0.10439 0.34516-3e-3 0.79748 0.2608 0.55087 0.8785 0.0695 2e-3 0.13833 6e-3 0.20981 2e-3 0.37495-0.71159-0.14136-1.0016-0.50178-0.98444zm-2.7383 1.7761c-0.16707 0.22448-0.32489 0.40317-0.4625 0.52038-0.24942 0.64443-0.9894 1.6608-1.3059 2.6887 0.36432-0.19241 0.50212-0.15463-0.0574 0.2005-0.092 0.36934-0.12095 0.73649-0.0419 1.0837 0.78876-0.6705 0.78983 0.10491 1.3446 0.53588 0.11928-0.12309 0.24423-0.22634 0.3669-0.31987-0.5267-0.41928-0.5343-1.1554-1.2935-0.51005-0.0766-0.33645-0.0489-0.69213 0.0403-1.0501 0.5422-0.34417 0.40888-0.38077 0.0558-0.1943 0.37142-1.2064 1.3564-2.4054 1.3534-2.9549zm25.842 3.559c-0.0698 0.0295-0.14728 0.0481-0.2279 0.061-0.0798 0.11496-0.0867 0.28927 0.17312 0.5705-0.68923-0.1683-1.2442 0.38895-1.9503 0.0827 0.146 0.0919 0.31502 0.20899 0.48369 0.33176 0.68336 0.22917 1.2367-0.28635 1.9162-0.12041-0.81716-0.88442 0.90708-0.75847-0.3948-0.92552zm-24.968 0.47955c-0.0911-5e-3 -0.5335 0.2217-0.92966 0.59738 0.28501-0.20141 0.53142-0.31642 0.5886-0.30644 0.30987-0.19354 0.39756-0.28778 0.34106-0.29094zm-0.79427 0.64648c-0.0965 0.0583-0.18707 0.11435-0.32091 0.18862-0.0629 0.17921-0.14243 0.32435-0.23461 0.44493 0.22712-0.12665 0.42108-0.32041 0.55552-0.63355zm24.561 0.16691c0.58001 0.47319 0.94263 0.94495-0.12144 0.74466-0.2506 0.66831-0.0207 1.0546 0.43564 1.3255-0.157-0.24484-0.18635-0.56035-0.0264-0.98702 1.3416 0.25253 0.49385-0.52726-0.28784-1.0831z" style="fill:#fff;stroke-width:0"/>
  <path d="m427.36 242.76c-0.0485-0.0168 0.0156 1.2271-0.65526 1.0082-0.11017-0.24129 0.0192-0.6715-0.41496-0.72553 0.019 0.50087-0.1416 2.7179-0.69608 3.5962 0.62671 0.59306-0.28723 1.9803 0.4749 2.5301 0.87094 0.83876-1.5012 1.9742-2.4944 2.082 1.7858 1.2271-1.4676 0.48064-1.3069 1.9182-0.51181 2.3906 0.44053-1.1756 0.52606 0.25993 1.5034 0.14064-0.0997 0.99826-0.25321 2.0087-1.2101 0.43327-1.279 2.2851 0.0692 1.2294 1.5969-0.43513 0.0101 0.041-0.20567 0.85628 0.1725 0.11812 1.0345 0.94274 0.70538 0.54932 1.1932-0.17507-0.65775 1.4563-0.65939-0.0961-0.92504-0.79638-1.1311-2.58-2.882-1.8609-0.21092 0.10197-0.35348 0.16503-0.46096 0.20929 0.20049-0.0358 0.47185-0.0163 0.53382 0.29197-0.32606 0.33903 1.3408 0.11269 0.63355 1.2557 1.098 0.0996 0.17088 0.317 9e-3 1.4578 1.252 1.4007-1.5182 2.7468-1.8242 4.5558 0.15405 0.0416 0.30207 0.12879 0.39326 0.2682 0.50686-0.47479 0.93447-1.3082 1.7492-1.4423-0.39688 1.0343-2.5077 1.8928-1.6221 3.3445 1.0025-1.3585-0.14395 0.14236 0.62012 0.25942-0.3256-0.55175 1.356-0.49207 0.75603 0.64647-1.8027 0.10874-2.9365-1.7704-4.7811-2.5001-0.85107-1.069-1.6315 1.6866-0.79581 1.0253 0.53172-0.69334 0.11088 0.0105 0.21807 0.48214 0.0142-0.0187 0.0276-0.034 0.0419-0.0532 2.5e-4 0.042-6e-3 0.0881-0.0145 0.13643 0.0364 0.0892 0.0955 0.16597 0.19637 0.21342 0.47288-0.10584 0.62129 0.0395 0.66146 0.26613 0.94357 0.10405 1.8664 0.36948 2.6138 0.85215 2.5168 1.0822 3.2693-3.675 5.6105-0.98754 1.4754-1.282 3.363-5.4414 5.3893-1.664 0.77617-2.9123 2.0839-1.5116 3.8427-0.52141 2.3425 3.4373 1.3841-2.8929 3.0825-0.9462 0.26149-0.34855 0.51073-0.53432 0.75293-0.61237-0.10855-0.11403-0.0503-0.17889 0.31988-0.14366 1.4436-0.85145-2.6748-2.1982-2.1239-2.1885 0.51889-0.50366 1.9273 0.8881 1.5787 0.0263-1.1166-1.1774 0.69978-0.28524 0.12248-0.84181-1.0819-0.76225-3.6768-0.97327-3.7517-1.6862 0.0401-1.0421 2.3664 0.48096 1.681-0.31987 1.4596 0.73289-3.1983-2.002-1.9652-1.5105 0.0495 0.53882 1.0712-0.18664 1.1084-0.78393 0.29455-0.034 0.49394-0.0695 0.61857-0.10542-0.30535-0.11262-0.56238-0.23133-0.72967-0.36587-0.0281-5e-3 -0.0531-9e-3 -0.0817-0.0139 0.0219 9.9e-4 0.0448 1e-3 0.0672 1e-3 -0.11582-0.097-0.18771-0.20151-0.19999-0.31832 4e-3 -0.10675 0.0295-0.18952 0.0708-0.25374-0.82529-1.0344-3.2145-1.0933-2.5942-2.1544 2.3952 0.90137-1.4202-1.8184 0.17364-1.7157 0.96774-0.0926-3.1687-2.4723-0.71521-2.4221-0.24789-0.78537 1.5125-0.67815-2e-3 -0.83199 0.79756-0.99673-0.15932-0.75051-0.68316-0.0806-0.58433-0.8796-1.0935 0.56443-0.58033 1.3059-0.25964 1.8947-1.9015-0.63279-1.0521-1.0273 1.9285 0.57324-1.2407-1.8083 0.42994-1.0614 0.93042 0.126-0.16456-0.52784-0.99477-0.74311 0.30406-1.0004 0.54399-1.1351-0.34726-1.8821-0.10549-0.56258-0.143-0.7666-0.16227-0.77617zm-4.9563 14.763c-0.0367-0.0251-0.053-0.029-8e-3 0.0294 2e-3 -0.01 5e-3 -0.0196 8e-3 -0.0294zm3.8861-14.481c-5e-3 -0.12675-0.0199-0.14901-0.0444-5e-3 0.0162 6.7e-4 0.0295 3e-3 0.0444 5e-3zm6.2937 11.008c0.26208-3e-3 0.62369 0.50432 1.173 0.63872-0.56269-0.0829-1.1803-0.15062-1.4903-0.18758 0.0897-0.33135 0.19231-0.44937 0.31729-0.45114zm-13.479 2.2753c-0.10761 0.0195-0.19575 0.0539-0.21704 0.0692l4e-3 6e-3c0.019-9.9e-4 0.0904-0.025 0.21291-0.0754z" style="fill:#262e26;opacity:.32101;stroke-width:0"/>
  <path d="m427.41 242.24c-0.0506-0.0175 0.0162 1.2794-0.68316 1.0511-0.11486-0.25155 0.0201-0.69971-0.43253-0.75603 4e-3 0.0984-2e-3 0.27395-0.0129 0.47801 2e-3 0.0155 4e-3 0.0143 5e-3 0.0367 0.43416 0.054 0.30479 0.48424 0.41496 0.72553 0.67085 0.21894 0.60676-1.025 0.65526-1.0082h5.1e-4c0.0193 0.01 0.0568 0.21359 0.16227 0.77617 0.45318 0.37982 0.6121 0.60186 0.62063 0.85938 0.16866-0.53259 0.14653-0.76068-0.56069-1.3534-0.10998-0.58651-0.14889-0.79927-0.16898-0.80925zm-1.1234 0.80977c-2e-3 -3.3e-4 -5e-3 -6.9e-4 -7e-3 -1e-3 -0.051 0.88791-0.24828 2.5019-0.71106 3.235 0.0535 0.0506 0.0933 0.10875 0.12712 0.1695 0.46969-0.9734 0.60892-2.9358 0.59118-3.4034zm8e-3 -0.5147c-5e-3 -0.13214-0.021-0.15552-0.0465-5e-3 0.0169 7e-4 0.031 3e-3 0.0465 5e-3zm1.7022 2.4934c-0.0414 0.12309-0.0804 0.23448-0.12971 0.39687 0.20015 0.0519 0.41509 0.13021 0.61392 0.21601 0.0566-0.0235 0.20442 0.0136 0.49764 0.14469 0.95001 0.12866-0.12402-0.51986-0.98185-0.75757zm3.1083 0.96428c-0.21372 0.0216-0.59975 0.26005-0.87282 0.60926-0.35494-0.5343-0.68166-0.24459-0.78806 0.24185 0.1489-0.21944 0.37746-0.25779 0.62012 0.10749 0.41551-0.53137 1.1002-0.79356 0.96893-0.38293 0.31468-0.42894 0.26805-0.59549 0.0718-0.57567zm-2.6624 0.0305c-0.31661-0.0307 0.31393 0.56263 0.5488 0.95705 0.45606 8e-3 0.056-0.47144-0.2589-0.86404-0.12934-0.0523-0.23211-0.0874-0.2899-0.093zm2.5378 0.66714c-0.049 0.0923-0.12306 0.20411-0.23306 0.34158 0.15269 0.0155 0.25107 0.0269 0.34261 0.0382 0.33932-0.28924 0.97608-0.26841-0.10955-0.37982zm-5.1707 0.42375c-0.0186 0.41259-0.12206 0.87032-0.0646 1.249 7e-3 -0.41147 0.11707-0.87264 0.0646-1.249zm2.4722 0.23978c-0.42614 0.58423 0.77283 2.3788 1.1353 1.2149-0.39886 0.47144-1.14-0.5496-1.1353-1.2149zm2.6448 0.0139c-0.0681 0.05-0.12501 0.11244-0.16122 0.18758 0.0569-2e-3 0.11504-3e-3 0.18086-2e-3 -0.0218-0.069-0.0243-0.12901-0.0196-0.18552zm-0.79323 0.57516c-0.74766 0.33278 1.1688 1.6231 1.4464 2.1348 0.0348-9.1e-4 0.0704-2e-3 0.11214 1e-3 0.74576-0.0713-1.4133-1.445-1.5586-2.1358zm-3.8938 1.5208c-0.19048 0.75697-1.9451 1.5381-2.7766 1.6283 0.0811 0.0557 0.14016 0.10262 0.20205 0.1509 0.92028-0.14347 2.7551-1.0153 2.5745-1.7792zm5.0338 0.82837c-0.73247 0.10379 0.69077 1.3238 0.82114 1.7482 0.87334 0.14414-0.78711-1.2073-0.82114-1.7482zm-7.2585 1.3358c0.14882 0.52974-2.0498 0.25-1.9141 1.464-0.29517 1.3787-0.12175 0.85863 0.10593 0.37052 0.0199-0.0985 0.0287-0.15234 0.0574-0.28629-0.141-1.261 2.3434-0.84205 1.7508-1.5482zm7.276 0.37363c-0.6203 1.0611 1.7689 1.12 2.5942 2.1544-0.0413 0.0642-0.0668 0.14699-0.0708 0.25374 8e-3 0.0747 0.0421 0.1439 0.0946 0.2098 0.0549 0.0217 0.11052 0.0424 0.1695 0.0569-0.0462-7e-3 -0.0912-0.0115-0.13797-0.0181 0.0221 0.0237 0.0467 0.047 0.0739 0.0698-0.0224 0-0.0453-4e-5 -0.0672-1e-3 0.0286 5e-3 0.0536 9e-3 0.0817 0.0139 0.16729 0.13454 0.42432 0.25325 0.72967 0.36587-0.12463 0.0359-0.32402 0.0714-0.61857 0.10542-0.0239 0.38449-0.45514 0.82019-0.77307 0.93948 0.20159 0.2989 1.079-0.37254 1.1141-0.93741 0.30708-0.0354 0.51499-0.0722 0.64492-0.10956-0.31833-0.1174-0.58628-0.24162-0.76068-0.38189-0.0293-5e-3 -0.055-9e-3 -0.0848-0.0145 0.0228 1e-3 0.0465 1e-3 0.0698 1e-3 -0.12074-0.10113-0.19546-0.20999-0.20826-0.33176 4e-3 -0.11129 0.0304-0.19765 0.0734-0.26459-0.81058-1.016-3.067-1.1297-2.7848-2.0645-0.0486-0.017-0.0845-0.0263-0.13953-0.047zm-8.6248 1.0821c-0.0163 3e-3 -0.0345 0.0176-0.0527 0.0336 0.0158 0.0584 0.029 0.1333 0.0357 0.24546 0.0512 5e-3 0.0899 0.0128 0.13435 0.0191-0.0193-0.21952-0.0609-0.30759-0.1173-0.29817zm0.55914 0.44235c0.40432 0.33268-0.71089 1.0792-0.84026 1.9306-0.60432 0.21638-0.93191 0.77062-0.9586 1.17 0.10425 0.13833 0.20318 0.2879 0.30179 0.43977 0.10447 6e-3 0.23665-0.0285 0.39688-0.11265-0.8226 0.2803-0.6287-1.1364 0.41186-1.509 0.13367-0.87977 1.3642-1.6431 0.68833-1.9188zm9.355 0.53123c-0.12498 2e-3 -0.22759 0.11979-0.31729 0.45114 0.31002 0.037 0.92766 0.10468 1.4903 0.18758-0.0918-0.0224-0.17665-0.0575-0.25838-0.0966-0.38861-0.0494-0.75497-0.0932-0.97048-0.11886 0.0546-0.20168 0.11512-0.32047 0.18087-0.39067-0.0438-0.0193-0.086-0.033-0.12506-0.0326zm0.2496 1.88c-0.21209 0.0495 3.4896 2.2336 2.1668 1.5694 0.21486 0.25108 0.11781 0.26439-0.0961 0.20928 0.46106 0.14478 0.80188 0.27375 0.47388-0.10955 1.1412 0.57305-1.3051-0.88773-2.0572-1.4376-0.15246 0.0424-0.26982 1e-3 -0.28577-0.1726-0.1156-0.0461-0.1796-0.064-0.20154-0.0589zm-12.849 0.0589c-0.20371 0.0103-0.43062 0.059-0.69453 0.16743-0.21989 0.1063-0.36854 0.17194-0.48059 0.21808 0.0483-9e-3 0.10084-0.013 0.15348-0.0124 0.0384-0.0131 0.0876-0.0268 0.14211-0.0367-0.0616 0.0253-0.0714 0.0258-0.10697 0.0382 0.16293 0.0107 0.32165 0.085 0.36793 0.31522-0.33992 0.35345 1.3978 0.11783 0.66043 1.3095 1.1446 0.10383 0.17792 0.33051 9e-3 1.5198 1.3052 1.4602-1.5827 2.8631-1.9017 4.7491 0.1606 0.0434 0.31473 0.13475 0.40979 0.28009 0.52842-0.49498 0.97425-1.364 1.8237-1.5038-0.0247 0.0644-0.0566 0.1279-0.093 0.19121 0.1421-0.16835 0.2606-0.33796 0.32763-0.51263-0.81478 0.13408-1.2424 0.9675-1.7492 1.4423-0.0912-0.13941-0.23921-0.2266-0.39326-0.2682 0.30595-1.809 3.0762-3.1551 1.8242-4.5558 0.16209-1.1408 1.0892-1.3582-9e-3 -1.4578 0.70726-1.143-0.95961-0.91671-0.63355-1.2557-0.062-0.30828-0.33333-0.32777-0.53382-0.29197 0.10748-0.0443 0.25004-0.10732 0.46096-0.20929 0.15113-0.0621 0.28694-0.0996 0.41651-0.12661zm-1.1777 0.38551c-3e-3 1e-3 -2e-3 8.6e-4 -5e-3 2e-3 2e-3 -3.8e-4 3e-3 -1e-3 5e-3 -2e-3zm-5e-3 2e-3c-0.10946 0.0205-0.19886 0.0551-0.22066 0.0708l4e-3 6e-3c0.0193-9.7e-4 0.0947-0.0269 0.21704-0.077zm4.4798 0.12609c-0.0724 4e-3 -0.27258 0.0556-0.6718 0.16433-0.0206 0.0162-0.0379 0.0255-0.0579 0.0403 1.4736-0.39905-0.0858 0.087-0.30541 0.91674 0.17984 0.12315 1.0785 0.98272 0.73535 0.57257 0.40734-0.0598 0.47136 0.0825 0.37724 0.24391 0.21309-0.19452 0.25408-0.44183-0.2496-0.36793 0.32913 0.39342-0.53288-0.4312-0.70538-0.54932-3e-3 0.01-6e-3 0.0195-8e-3 0.0294-0.0452-0.0585-0.029-0.0546 8e-3 -0.0294 0.16183-0.61146 1.0948-1.0321 0.87747-1.0206zm-1.0351 1.1214c-0.0383-0.0262-0.0555-0.0305-8e-3 0.0305 2e-3 -0.0104 5e-3 -0.0203 8e-3 -0.0305zm11.449-0.18191c-0.21302 0.0163-0.36618 0.11672-0.3762 0.37724 0.0263 0.25019 0.36603 0.43822 0.8387 0.6103-0.30716-0.14299-0.51174-0.30178-0.53226-0.49713 0.0191-0.49689 0.53587-0.42987 1.0237-0.29559-0.29951-0.0951-0.67439-0.21617-0.95395-0.19482zm2.7952 1.7539c0.21776 0.0934 0.41741 0.19476 0.58033 0.30954 0.5773 0.55657-1.239-0.33557-0.12248 0.84181 0.34857 0.86175-1.0598-0.53001-1.5787-0.0263-0.14345-3e-3 0.0356 0.0895 0.34468 0.23823-3e-3 -0.012 9e-3 -0.0193 0.0486-0.0186 0.54094-0.52507 2.0093 0.92576 1.6459 0.0274-1.164-1.2274 0.72949-0.29723 0.12764-0.87746-0.275-0.19376-0.64432-0.3532-1.0459-0.49455zm0.47904 2.018c0.6833 0.4183 1.1814 0.90777 0.524 1.2955-0.37019-0.0352-0.42843 0.0296-0.31988 0.14366-0.23896 0.077-0.48492 0.26037-0.74259 0.59997 0.12194 0.0545 0.26284 0.16791 0.42788 0.35708 0.27261-0.36337 0.53247-0.55684 0.78497-0.6382-0.11318-0.11888-0.0527-0.18659 0.33331-0.14986 0.82934-0.48916-0.10029-1.1285-1.0077-1.6082zm-1.0728 1.6743c-0.90556-0.12808-0.57903 3.6245-2.1053 1.9136 2.0189 2.778 1.4925-1.9694 2.6076-1.5591-0.20183-0.22573-0.36643-0.33528-0.50229-0.3545zm-5.0839 0.10336c-0.53632 0.0186-0.97766 0.46737-1.3172 1.7415-2.0263-3.7774-3.914 0.38199-5.3893 1.664-1.7142-1.9677-2.5773 0.0541-3.9042 0.85421-0.0217 0.0667-0.0516 0.13777-0.0915 0.21343-0.12021 7e-3 -0.23755 5e-3 -0.35243-4e-3 -0.37283 0.12365-0.78587 0.12845-1.2625-0.0765-0.74743-0.48267-1.6702-0.7481-2.6138-0.85215-0.0402-0.22665-0.18858-0.37197-0.66146-0.26613-0.10087-0.0474-0.15997-0.12422-0.19637-0.21342 9e-3 -0.0483 0.0147-0.0944 0.0145-0.13643-0.0143 0.0192-0.0277 0.0345-0.0419 0.0532-0.10719-0.47164 0.31365-1.1755-0.21807-0.48214-0.48582 0.38449-0.42383-0.38388-0.12093-0.88625-0.65934 0.0736-1.0733 1.8891-0.36122 1.3255 0.55434-0.72282 0.11563 0.0111 0.22738 0.50281 0.0148-0.0195 0.029-0.0353 0.0439-0.0553 2.6e-4 0.0438-6e-3 0.0917-0.0155 0.14211 0.0379 0.093 0.0995 0.17274 0.20464 0.22221 0.49299-0.11034 0.64801 0.0413 0.68988 0.27751 0.9837 0.10847 1.9457 0.38512 2.7249 0.88831 2.6238 1.1282 3.4085-3.8311 5.8493-1.0294 1.5381-1.3365 3.5058-5.6728 5.6183-1.7348 0.80218-3.0099 2.1503-1.6013 3.96-0.57102-0.0826-0.10643-0.16841-0.22179-0.26096-0.3576-0.9893-0.55697-1.8359-1.244-2.5254-1.2201zm-11.824 1.6588c-0.45973 0.52833-0.75204 1.1089-0.33486 1.8304 0.0118 7e-3 0.0238 0.0137 0.0357 0.0207 1.0008-1.3571-0.15756 0.16782 0.63253 0.28887-0.28243-0.4786 0.87937-0.51311 0.9188 0.17157 0.0383-5.3e-4 0.0753 3e-3 0.11421 5.1e-4 0.59994-1.1385-1.0816-1.1982-0.75603-0.64647-0.76407-0.11706 0.38238-1.618-0.62012-0.25942-0.32749-0.53684-0.24403-0.99262 0.01-1.4061z" style="fill:#fff;opacity:.81101;stroke-width:0"/>
  <path d="m455.98 208.56s-0.37431 0.3599-0.27179 0.52989c0.13158 0.21831 0.66028 0.2414 0.76437 9e-3 0.0994-0.2221-0.49258-0.53871-0.49258-0.53871z" style="fill:#fefeff"/>
  <path d="m468.89 212.93s-0.37431 0.3599-0.27179 0.52989c0.13158 0.21831 0.66028 0.2414 0.76437 9e-3 0.0994-0.2221-0.49258-0.53871-0.49258-0.53871z" style="fill:#fefeff"/>
 </g>
</svg>
